<?xml version="1.0" standalone="no"?>
<!DOCTYPE svg PUBLIC "-//W3C//DTD SVG 1.1//EN" "http://www.w3.org/Graphics/SVG/1.1/DTD/svg11.dtd" >
<svg xmlns="http://www.w3.org/2000/svg">
<metadata></metadata>
<defs>
<font id="rockoflfbold" horiz-adv-x="1366" >
<font-face units-per-em="2048" ascent="1638" descent="-410" />
<missing-glyph horiz-adv-x="538" />
<glyph horiz-adv-x="2048" />
<glyph horiz-adv-x="2048" />
<glyph horiz-adv-x="682" />
<glyph horiz-adv-x="491" d="M41 1579q0 -86 59.5 -145.5t145.5 -59.5t145.5 59.5t59.5 145.5q0 29 -18.5 47.5t-47.5 18.5t-47.5 -18.5t-18.5 -47.5q0 -31 -21.5 -52.5t-51.5 -21.5q-31 0 -52.5 21.5t-21.5 52.5q0 29 -18.5 47.5t-47.5 18.5t-47 -18.5t-18 -47.5z" />
<glyph horiz-adv-x="395" d="M41 1487q0 -66 45 -111t111 -45t111.5 45t45.5 111t-46 112t-111 46q-66 0 -111 -46t-45 -112z" />
<glyph horiz-adv-x="405" d="M41 1454q0 -68 47 -115t115 -47t115 47t47 115t-47 115t-115 47t-115 -47t-47 -115zM109 1454q0 39 27.5 66.5t66.5 27.5t66.5 -27.5t27.5 -66.5t-27.5 -66.5t-66.5 -27.5t-66.5 27.5t-27.5 66.5z" />
<glyph horiz-adv-x="868" d="M25 397h819v629l-191 191h-628v-820zM35 408v798h614l185 -184v-614h-799zM109 803q0 -68 25.5 -127.5t69.5 -103.5t103.5 -69.5t126.5 -25.5q53 0 103.5 16.5t97.5 53.5l-72 71q-10 -6 -17 -11t-24 -13q27 12 39 38.5t12 51.5q0 23 -7.5 47t-30.5 51q-27 29 -68 57.5 t-57 47.5q-12 16 -19.5 28.5t-7.5 32.5q0 29 21.5 52.5t62.5 23.5q16 0 39.5 -8t60.5 -29l70 70q-47 39 -99.5 55t-103.5 16q-68 0 -127 -25.5t-103 -69.5t-69.5 -103.5t-25.5 -126.5zM119 803q0 66 24.5 123t67.5 100t100.5 67.5t122.5 24.5q47 0 94 -13t95 -48l-58 -58 q-23 16 -51.5 25.5t-44.5 9.5q-39 0 -68.5 -22.5t-29.5 -63.5q0 -16 6 -32.5t24 -34.5q14 -14 31 -27.5t27 -19.5q37 -27 50 -40.5t17 -17.5q20 -29 28.5 -49t8.5 -43q0 -29 -13 -49.5t-30.5 -34.5t-34 -21.5t-24.5 -9.5q41 6 67.5 18.5t34.5 16.5l55 -55q-47 -35 -95 -47.5 t-89 -12.5q-66 0 -123 25t-100 67t-67.5 99t-24.5 123zM205 803q0 -66 24.5 -109t57 -69.5t64.5 -36.5t46 -10q39 0 63.5 24.5t24.5 48.5q0 41 -26 68q-20 20 -63.5 50t-65.5 54q-20 23 -29.5 49.5t-9.5 51.5q0 59 47 90q-72 -35 -102.5 -95.5t-30.5 -115.5zM217 803 q0 43 17.5 88t52.5 76q-4 -10 -5 -21.5t-1 -21.5q0 -27 7.5 -52.5t30.5 -54.5q4 -4 14.5 -13t45.5 -36q29 -23 45 -35t27 -22q10 -14 17 -27.5t7 -32.5q0 -23 -23.5 -42t-54.5 -19q-25 0 -60.5 15.5t-62.5 43.5q-29 29 -43 66t-14 88zM618 668l70 -68q39 43 55.5 97.5 t16.5 105.5q0 113 -72 203l-70 -70q16 -23 31 -54.5t15 -78.5q0 -33 -11.5 -70t-34.5 -65zM633 670q23 29 32 63.5t9 69.5q0 45 -12.5 74.5t-28.5 58.5l55 53q35 -47 47.5 -96t12.5 -90q0 -117 -62 -189z" />
<glyph unicode="&#xd;" horiz-adv-x="456" d="M80 147q0 -59 44 -103t103 -44q61 0 105.5 43t44.5 104v863q0 61 -43 105t-105 44q-61 0 -105 -44t-44 -105v-863z" />
<glyph horiz-adv-x="2213" d="M41 1317q0 -39 30.5 -75t75.5 -36q35 0 56.5 5.5t36.5 5.5q16 0 24 -10.5t8 -39.5v-647q0 -47 34 -82t83 -35t84 35t35 82v979q0 57 -39 87t-80 30q-29 0 -49.5 -12.5t-38.5 -32t-35.5 -44.5t-40.5 -52q-20 -23 -51 -37.5t-60.5 -29.5t-51 -36.5t-21.5 -54.5zM467 109 q0 -45 30.5 -78t77.5 -33q31 0 57.5 16.5t41.5 44.5l669 1430q10 25 11 45q0 35 -13.5 56.5t-32 32.5t-37 15t-26.5 4q-31 0 -57.5 -16t-40.5 -45l-670 -1429q-10 -25 -10 -43zM1194 360q0 -84 36 -153.5t99.5 -121.5t152.5 -81t193 -29q113 0 203 29t152.5 81t95.5 121.5 t33 153.5q0 51 -15.5 96.5t-40 82t-54.5 65.5t-56 45q-8 8 -8 17q0 12 8 14q12 8 32.5 22.5t40 40t34 62.5t14.5 90q0 78 -35 139.5t-94.5 104.5t-139.5 66.5t-170 23.5t-169 -23.5t-138 -66.5t-94 -104.5t-35 -139.5q0 -53 13.5 -90t33 -62.5t40 -40t34.5 -22.5q8 -4 8 -16 q0 -2 -8 -15q-29 -18 -57.5 -46t-53 -64.5t-40 -81.5t-15.5 -97zM1430 360q0 51 21.5 89t55 63t77.5 37t91 12t91 -12t79 -37t56.5 -63t21.5 -89t-21.5 -87.5t-56.5 -59.5t-80 -34t-90 -11t-89 11t-78.5 34t-56 59.5t-21.5 87.5zM1475 883q0 76 55 117.5t145 41.5 q92 0 147.5 -41.5t55.5 -117.5t-55.5 -118t-147.5 -42q-90 0 -145 42t-55 118z" />
<glyph horiz-adv-x="1304" d="M41 1065q0 -41 27.5 -67.5t66.5 -26.5h86v-824q0 -59 44 -103t106 -44q59 0 103 44t44 103v824h426v-824q0 -59 43 -103t103 -44q61 0 105 43t44 104v863q0 61 -43 105t-104 44h-574v27q0 109 39 148.5t127 39.5q72 0 96.5 34t24.5 87q0 76 -64.5 98.5t-171.5 22.5 q-104 0 -171.5 -31t-106.5 -87t-54.5 -136t-15.5 -176v-27h-86q-39 0 -66.5 -27.5t-27.5 -66.5zM944 1468q0 -61 43 -104t105 -43q61 0 104 43t43 104t-43 104.5t-104 43.5t-104.5 -43.5t-43.5 -104.5z" />
<glyph horiz-adv-x="1333" d="M41 1065q0 -41 27.5 -67.5t66.5 -26.5h86v-824q0 -59 44 -103t106 -44q59 0 103 44t44 103v824h146q39 0 66.5 26.5t27.5 67.5q0 39 -28 66.5t-66 27.5h-146v27q0 109 39 148.5t127 39.5q72 0 96.5 34t24.5 87q0 76 -64.5 98.5t-171.5 22.5q-104 0 -171.5 -31t-106.5 -87 t-54.5 -136t-15.5 -176v-27h-86q-39 0 -66.5 -27.5t-27.5 -66.5zM944 147q0 -59 43 -103t103 -44q61 0 105 43t44 104v1321q0 61 -43 104.5t-104 43.5t-104.5 -43t-43.5 -105v-1321z" />
<glyph horiz-adv-x="1439" d="M41 504q0 -55 35 -81t74 -26q41 0 75 31l80 80v-346q0 -43 14.5 -74t38 -50.5t52 -28.5t57.5 -9h813q57 0 96 39t39 96q0 55 -39 94t-96 39h-662v553l232 232q31 31 31 75q0 43 -31 76t-78 33q-43 0 -74 -31l-80 -80v334q0 66 -46 111t-111 45q-66 0 -111 -45t-45 -111 v-647l-231 -231q-33 -33 -33 -78z" />
<glyph horiz-adv-x="905" d="M41 504q0 -55 35 -81t74 -26q41 0 75 31l80 80v-361q0 -59 43 -103t105 -44q61 0 105 43t44 104v658l232 231q31 31 30 76q0 43 -30.5 76t-77.5 33q-43 0 -74 -31l-80 -80v358q0 61 -44 104.5t-105 43.5q-59 0 -103.5 -43t-44.5 -105v-655l-231 -231q-33 -33 -33 -78z " />
<glyph horiz-adv-x="1507" d="M94 180q0 -31 12.5 -62.5t36 -58t56 -43t75.5 -16.5h1043q55 0 95 39t40 96q0 55 -40 94t-95 39h-791l883 1080q33 39 33 88q0 31 -12.5 63.5t-36 58t-57 42t-74.5 16.5h-981q-55 0 -95.5 -39t-40.5 -94q0 -57 40 -96t96 -39h735l-889 -1080q-33 -39 -33 -88zM526 1985 q0 -86 59.5 -145.5t145.5 -59.5t145.5 59t59.5 146q0 29 -18.5 47t-47.5 18t-47 -18.5t-18 -46.5q0 -31 -21.5 -52.5t-52.5 -21.5t-52.5 21.5t-21.5 52.5q0 29 -18 47t-47 18t-47.5 -18t-18.5 -47z" />
<glyph horiz-adv-x="1142" d="M41 152q0 -31 12.5 -57.5t32.5 -48t48 -34t59 -12.5h788q51 0 86 33t35 88q0 51 -35 86t-86 35h-537l609 667q49 55 49 119q0 63 -45 110.5t-131 47.5h-693q-51 0 -85.5 -36t-34.5 -85q0 -51 34.5 -86t85.5 -35h459l-606 -684q-45 -51 -45 -108zM375 1550 q0 -86 59.5 -145t145.5 -59t145 59t59 145q0 29 -18 47.5t-47 18.5t-47.5 -18.5t-18.5 -47.5q0 -31 -21.5 -52t-51.5 -21q-31 0 -52.5 21.5t-21.5 51.5q0 29 -18.5 47.5t-47.5 18.5t-47 -18.5t-18 -47.5z" />
<glyph unicode=" "  horiz-adv-x="538" />
<glyph unicode="&#x09;" horiz-adv-x="538" />
<glyph unicode="&#xa0;" horiz-adv-x="538" />
<glyph unicode="!" horiz-adv-x="501" d="M94 156q0 -66 45 -111t111 -45t112 45t46 111t-46.5 111.5t-111.5 45.5q-66 0 -111 -45.5t-45 -111.5zM121 578q0 -53 38 -92.5t91 -39.5t91 39t38 93v909q0 53 -38 91t-91 38t-91 -38t-38 -91v-909z" />
<glyph unicode="&#x22;" horiz-adv-x="688" d="M41 1534q0 -14 2 -21l51 -233q8 -33 26.5 -55.5t51.5 -22.5t51.5 22.5t26.5 55.5l51 233q2 6 2 21q0 49 -43 80t-88 31t-88 -31t-43 -80zM385 1534q0 -14 2 -21l51 -233q8 -33 26.5 -55.5t51.5 -22.5t51.5 22.5t26.5 55.5l51 233q2 6 2 21q0 49 -43 80t-88 31t-88 -31 t-43 -80z" />
<glyph unicode="#" horiz-adv-x="1130" d="M53 915q0 -39 28 -66.5t66 -27.5h136v-133q0 -41 27.5 -68.5t66.5 -27.5t66.5 27.5t27.5 68.5v133h188v-133q0 -41 28 -68.5t67 -27.5q41 0 67.5 27.5t26.5 68.5v133h135q41 0 67.5 28t26.5 66q0 41 -26.5 68t-67.5 27h-135v190h135q41 0 67.5 26.5t26.5 67.5 q0 39 -26.5 67t-67.5 28h-135v133q0 41 -26.5 67.5t-67.5 26.5q-39 0 -67 -26.5t-28 -67.5v-133h-188v133q0 41 -27.5 67.5t-66.5 26.5t-66.5 -26.5t-27.5 -67.5v-133h-136q-39 0 -66.5 -28t-27.5 -67q0 -41 28 -67.5t66 -26.5h136v-190h-136q-39 0 -66.5 -27t-27.5 -68z M471 1010v190h188v-190h-188z" />
<glyph unicode="$" horiz-adv-x="1107" d="M59 625q0 -39 23.5 -93.5t75 -106.5t132.5 -94t193 -55v-141q0 -23 16.5 -38t39.5 -15t38 15.5t15 37.5v135q92 0 176 27t147.5 79t100.5 129t37 179q0 84 -40 139.5t-104.5 91t-147.5 59t-169 44.5v246q20 -4 48 -12.5t55.5 -24t53 -40t42.5 -63.5q10 -29 32.5 -40 t46.5 -11q23 0 46.5 9.5t43 24.5t32 37.5t12.5 49.5q0 31 -23 75t-73 87t-128 77.5t-188 47.5v108q0 23 -15.5 39.5t-37.5 16.5q-23 0 -39.5 -16.5t-16.5 -39.5v-108q-84 -6 -157.5 -34t-128 -75t-85 -110.5t-30.5 -143.5t36 -134t93 -92t129 -61.5t143 -39.5v-293 q-53 18 -99 55t-81 125q-12 31 -41 45t-63 14q-51 0 -95.5 -24.5t-44.5 -87.5zM352 1153q0 29 12.5 48.5t32 31.5t42 19.5t44.5 11.5v-217q-51 16 -91 37.5t-40 68.5zM592 485v277q70 -18 124 -49t54 -88q0 -35 -17.5 -59.5t-44 -42t-58.5 -27t-58 -11.5z" />
<glyph unicode="%" horiz-adv-x="1744" d="M41 1227q0 -193 89 -305.5t247 -112.5t248 112.5t90 305.5q0 94 -23.5 172t-67.5 132t-106.5 84t-140.5 30q-158 0 -247 -113t-89 -305zM215 1227q0 127 42 184t120 57t120 -57t42 -184q0 -129 -42 -186.5t-120 -57.5t-120 57.5t-42 186.5zM444 109q0 -45 31 -78t78 -33 q31 0 57.5 16.5t40.5 44.5l670 1430q10 25 10 45q0 35 -13 56.5t-31.5 32.5t-37 15t-26.5 4q-31 0 -57.5 -16t-41.5 -45l-669 -1429q-10 -25 -11 -43zM1030 418q0 -193 89 -305.5t247 -112.5t248 112.5t90 305.5q0 94 -23.5 172t-67.5 132t-106.5 84t-140.5 30 q-158 0 -247 -113t-89 -305zM1204 418q0 129 42 185t120 56t120 -56t42 -185t-42 -185.5t-120 -56.5t-120 56.5t-42 185.5z" />
<glyph unicode="&#x26;" horiz-adv-x="1384" d="M41 426q0 -104 36 -188t98.5 -142.5t150.5 -90.5t192 -32q88 0 157.5 17.5t127 45t103.5 63.5t87 71l103 -125q37 -47 100 -47q59 0 103 44t44 103q0 53 -34 95l-123 145q82 121 108.5 197.5t26.5 99.5q0 33 -14.5 59.5t-36 46t-49 30.5t-52.5 11q-29 0 -51 -15 t-32.5 -48t-28 -73t-47.5 -93l-213 258q63 43 115.5 87t88 91t55 103.5t19.5 124.5q0 86 -31.5 155.5t-89 119.5t-138.5 78t-177 28q-80 0 -155.5 -26t-133 -74t-92.5 -113.5t-35 -145.5q0 -61 17.5 -115.5t44 -100.5t57 -86t55.5 -73q-68 -41 -132 -88t-114.5 -104 t-80 -129t-29.5 -164zM336 426q0 45 20.5 83t54 71.5t73.5 63.5t81 58l264 -325q-68 -68 -148.5 -101.5t-152.5 -33.5q-61 0 -99 22.5t-58.5 53t-27.5 61.5t-7 47zM520 1262q0 51 42 81.5t93 30.5q53 0 94.5 -28.5t41.5 -83.5q0 -68 -37 -111t-121 -94q-41 51 -77 103 t-36 102z" />
<glyph unicode="'" horiz-adv-x="344" d="M41 1534q0 -14 2 -21l51 -233q8 -33 26.5 -55.5t51.5 -22.5t51.5 22.5t26.5 55.5l51 233q2 6 2 21q0 49 -43 80t-88 31t-88 -31t-43 -80z" />
<glyph unicode="(" horiz-adv-x="536" d="M41 809q0 -211 57 -411.5t172 -366.5q27 -39 57.5 -55.5t61.5 -16.5q49 0 86 35t37 86q0 31 -18 65q-98 178 -145.5 340t-47.5 324t47 323.5t146 340.5q8 14 8 32q0 23 -11.5 47.5t-30 45t-43 34t-50.5 13.5q-25 0 -49.5 -13.5t-47.5 -46.5q-117 -166 -173 -365.5 t-56 -410.5z" />
<glyph unicode=")" horiz-adv-x="534" d="M25 80q0 -51 35.5 -86t84.5 -35q29 0 61 16.5t58 55.5q117 166 173.5 366.5t56.5 411.5t-56.5 410.5t-173.5 365.5q-23 33 -47 46.5t-49 13.5q-27 0 -51.5 -13.5t-43 -34t-29.5 -45t-11 -47.5q0 -18 8 -32q96 -178 144 -340t48 -324t-48 -323.5t-144 -340.5 q-16 -31 -16 -65z" />
<glyph unicode="*" horiz-adv-x="823" d="M41 1077q0 -51 35 -74.5t65 -23.5q25 0 49 12l121 70v-135q0 -41 30 -72t71 -31t70.5 31t29.5 72v135l119 -70q20 -12 51 -12q55 0 77.5 34t22.5 64q0 59 -49 88l-119 70l119 68q25 14 37 37.5t12 50.5q0 31 -11 50t-27.5 30.5t-33 15.5t-28.5 4q-31 0 -51 -12l-119 -70 v135q0 41 -29.5 71t-70.5 30t-71 -30t-30 -71v-135l-121 70q-23 12 -49 12q-29 0 -48 -11.5t-30.5 -26.5t-16.5 -32.5t-5 -29.5q0 -27 12.5 -50.5t36.5 -37.5l119 -68l-119 -70q-25 -14 -37 -37.5t-12 -50.5z" />
<glyph unicode="+" horiz-adv-x="911" d="M25 809q0 -45 31.5 -77t76.5 -32h215v-215q0 -45 32 -76.5t77 -31.5t75.5 31.5t30.5 76.5v215h217q45 0 76 32t31 77t-31 75.5t-76 30.5h-217v218q0 45 -30.5 75.5t-75.5 30.5t-77 -30.5t-32 -75.5v-218h-215q-45 0 -76.5 -30.5t-31.5 -75.5z" />
<glyph unicode="," horiz-adv-x="397" d="M41 156q0 -66 45 -111t111 -45l-62 -63q-16 -16 -16 -39q0 -29 25.5 -53.5t58.5 -24.5q29 0 47 18q25 25 44 57.5t33.5 70.5t21.5 77t7 74q0 80 -43 138t-116 58q-66 0 -111 -45.5t-45 -111.5z" />
<glyph unicode="-" horiz-adv-x="944" d="M41 809q0 -45 31.5 -77t77.5 -32h647q45 0 75.5 32t30.5 77t-30.5 75.5t-75.5 30.5h-647q-45 0 -77 -30.5t-32 -75.5z" />
<glyph unicode="." horiz-adv-x="395" d="M41 156q0 -66 45 -111t111 -45t111.5 45t45.5 111t-46 111.5t-111 45.5q-66 0 -111 -45.5t-45 -111.5z" />
<glyph unicode="/" horiz-adv-x="935" d="M25 109q0 -45 30.5 -78t77.5 -33q31 0 57.5 16.5t40.5 44.5l670 1430q10 25 10 45q0 35 -13 56.5t-31.5 32.5t-37 15t-26.5 4q-31 0 -57.5 -16t-40.5 -45l-670 -1429q-10 -25 -10 -43z" />
<glyph unicode="0" horiz-adv-x="1429" d="M41 809q0 -190 46 -345t133 -264.5t212 -168t283 -58.5q156 0 280.5 58.5t212.5 168t134.5 264t46.5 345.5q0 190 -46.5 345t-134.5 264.5t-213 168t-280 58.5q-158 0 -283 -58.5t-212 -168t-133 -264.5t-46 -345zM352 809q0 283 93.5 411t269.5 128q174 0 267 -128 t93 -411q0 -285 -93 -412t-267 -127q-176 0 -269.5 127t-93.5 412z" />
<glyph unicode="1" horiz-adv-x="743" d="M27 1219q0 -27 11 -52.5t30.5 -47t45 -35t56.5 -13.5q45 0 73.5 6t49.5 6q20 0 31.5 -13t11.5 -52v-862q0 -66 45 -111t111 -45t111.5 45t45.5 111v1304q0 37 -15.5 66.5t-38 49t-50 30t-53.5 10.5q-39 0 -67 -16.5t-51.5 -43t-47 -60.5t-54.5 -69q-27 -31 -67.5 -50 t-80.5 -39.5t-68.5 -47t-28.5 -71.5z" />
<glyph unicode="2" horiz-adv-x="1255" d="M41 135q0 -49 39 -92t96 -43h905q55 0 94 39t39 96q0 55 -38.5 94t-94.5 39h-555q-37 0 -51 7.5t-14 19.5q0 14 16.5 32.5t39 37t47 37t40.5 30.5q35 27 92.5 62.5t122 81t130 99.5t117.5 119.5t85 143.5t33 166q0 156 -49.5 260t-131 166.5t-188 88.5t-221.5 26 q-96 0 -190.5 -26t-168 -78t-119.5 -130t-46 -184q0 -49 14 -83t36.5 -56.5t51.5 -33t59 -10.5q53 0 96.5 32t43.5 85q0 61 17.5 102.5t48 66t71.5 34.5t86 10q113 0 189.5 -62.5t76.5 -199.5q0 -90 -60.5 -170t-151.5 -155.5t-197.5 -150.5t-197.5 -154t-151.5 -165 t-60.5 -182z" />
<glyph unicode="3" horiz-adv-x="1304" d="M41 406q0 -43 29.5 -116t98.5 -143.5t181.5 -122t280.5 -51.5q117 0 229.5 31t202.5 92.5t145.5 150.5t55.5 206q0 102 -30 169.5t-73 112.5t-92 69.5t-88 41.5q-10 4 -10 14q0 8 14 14q12 4 50 25t78 58.5t70.5 95t30.5 135.5q0 92 -40.5 174t-115.5 145.5t-180.5 100.5 t-236.5 37q-152 0 -253 -52.5t-163.5 -121t-89 -139t-26.5 -107.5q0 -80 47 -120t100 -40q41 0 73.5 22.5t43.5 75.5q8 37 27.5 75t52 67.5t80 49t108.5 19.5q123 0 192.5 -53t71.5 -152q0 -66 -33.5 -107.5t-81 -66t-99.5 -35t-91 -10.5q-41 0 -60.5 -29.5t-19.5 -68.5 t20.5 -74t59.5 -35q53 0 112.5 -10t108.5 -38.5t82 -81t33 -136.5q0 -57 -26.5 -101t-69.5 -74t-98.5 -45t-110.5 -15q-78 0 -134.5 25.5t-95.5 62.5t-62.5 76.5t-33.5 70.5q-14 41 -45 58.5t-67 17.5q-27 0 -54.5 -10.5t-49 -28.5t-35 -46t-13.5 -62z" />
<glyph unicode="4" horiz-adv-x="1378" d="M27 614q0 -49 18 -93t52 -76.5t81 -52t107 -19.5h508v-217q0 -66 45 -111t110 -45q66 0 112 45t46 111v217h111q55 0 95 39t40 94q0 57 -40 96t-95 39h-111v741q0 49 -17.5 92.5t-47 75t-70.5 49t-86 17.5q-63 0 -111.5 -38t-93.5 -91l-574 -676q-79 -93 -79 -197z M299 641l494 590v-590h-494z" />
<glyph unicode="5" horiz-adv-x="1308" d="M41 422q0 -20 6 -41q16 -55 47 -126t94.5 -133.5t168 -105.5t268.5 -43q129 0 245.5 34t204.5 104.5t140.5 179t52.5 258.5q0 109 -38 207t-109.5 171.5t-173 118t-228.5 44.5q-53 0 -102.5 -11.5t-93.5 -27t-80.5 -35t-63.5 -33.5l59 365h506q55 0 95 38.5t40 96.5 q0 55 -40 94t-95 39h-590q-49 0 -79.5 -11.5t-48 -31t-25.5 -46t-15 -57.5l-98 -589q-6 -41 4 -73t32.5 -54.5t52.5 -34.5t61 -12q49 0 89 19t83 42t98 42t139 19q61 0 116.5 -22.5t96.5 -61t65.5 -92t24.5 -114.5q0 -74 -27.5 -130.5t-72.5 -93t-103.5 -55t-121.5 -18.5 q-74 0 -125 17t-88 49t-60.5 78t-42.5 103q-16 49 -46 71t-64 22q-29 0 -56.5 -12.5t-50 -34t-37 -51t-14.5 -62.5z" />
<glyph unicode="6" horiz-adv-x="1327" d="M41 782q0 -188 45 -337.5t130 -254t205 -161t271 -56.5q119 0 226.5 39t189.5 112t130 175t48 231q0 121 -43 223.5t-121 178.5t-186.5 118t-237.5 42q-53 0 -100 -9.5t-86 -21.5t-66.5 -21.5t-42.5 -9.5q-16 0 -16 10q0 66 22.5 126.5t63.5 106.5t95.5 73.5t119.5 27.5 q53 0 93 -10t73 -29.5t58.5 -50.5t52.5 -72q14 -23 38.5 -33t53.5 -10q49 0 93 31t44 90q0 35 -28.5 94.5t-91 118t-164 100.5t-246.5 42q-158 0 -276 -68t-194.5 -184.5t-114.5 -274.5t-38 -336zM375 547q0 61 23.5 113.5t64.5 90t94 60.5t115 23q63 0 117.5 -24 t95.5 -64.5t64.5 -95t23.5 -115.5t-22.5 -115.5t-62.5 -96.5t-92.5 -67t-111.5 -25q-66 0 -122 25t-97 68t-65.5 100t-24.5 123z" />
<glyph unicode="7" horiz-adv-x="1288" d="M27 1483q0 -57 39.5 -96t95.5 -39h739q-145 -145 -262 -313.5t-199 -328t-126 -296t-44 -222.5q0 -37 14.5 -70.5t40 -60t60.5 -42t74 -15.5t73.5 14.5t60 40t40 59t14.5 74.5q0 109 27.5 218.5t72 216t102.5 206t119.5 188.5t122 162.5t111.5 129.5q61 66 62 139 q0 72 -55.5 120t-137.5 48h-909q-55 0 -95 -39t-40 -94z" />
<glyph unicode="8" d="M41 487q0 -111 47 -205t132 -162.5t203 -107.5t259 -39q152 0 270.5 39t201.5 107.5t127 163t44 204.5q0 68 -20.5 127.5t-53 109.5t-70.5 88t-75 60q-12 8 -12 21q0 14 12 20q18 10 45 30t52.5 52.5t44 82.5t18.5 122q0 102 -46 185t-126 140.5t-186.5 88.5t-225.5 31 t-224.5 -31t-185 -88.5t-126 -140.5t-46.5 -185q0 -72 18.5 -122t44 -82.5t52.5 -52t45 -30.5q12 -8 12 -22q0 -10 -12 -19q-37 -25 -76 -61.5t-70.5 -85.5t-52 -108.5t-20.5 -129.5zM354 487q0 70 28 120t74 83t105.5 48.5t120.5 15.5t120.5 -15.5t105.5 -48.5t75 -83 t29 -120t-29 -117.5t-75 -78.5t-105.5 -45.5t-120.5 -14.5t-119.5 14.5t-104.5 45.5t-75 79t-29 117zM414 1184q0 100 73.5 156.5t194.5 56.5q123 0 196.5 -56.5t73.5 -156.5q0 -102 -73.5 -157.5t-196.5 -55.5q-121 0 -194.5 55t-73.5 158z" />
<glyph unicode="9" horiz-adv-x="1327" d="M41 1085q0 -121 43 -222t121 -177t185.5 -118t238.5 -42q53 0 100 9.5t85 21.5t65.5 21.5t44.5 9.5q16 0 16 -10q0 -68 -23.5 -128.5t-63.5 -106.5t-96.5 -73.5t-119.5 -27.5q-106 0 -165.5 42t-109.5 119q-14 23 -38.5 33t-53.5 10q-49 0 -94 -30.5t-45 -89.5 q0 -37 31 -96.5t96.5 -116t166 -98.5t239.5 -42q158 0 275.5 71t194 189.5t114.5 274.5t38 328q0 188 -46 338.5t-130 255t-206 160t-271 55.5q-119 0 -226.5 -39t-188.5 -112t-129 -176.5t-48 -232.5zM354 1083q0 61 22.5 115.5t61.5 95.5t91.5 65.5t111.5 24.5 q68 0 126 -24.5t100 -66.5t64.5 -99t20.5 -125q-2 -59 -26.5 -111.5t-64.5 -91.5t-93 -61.5t-113 -22.5q-61 0 -116.5 23.5t-96.5 64.5t-64.5 96.5t-23.5 116.5z" />
<glyph unicode=":" horiz-adv-x="477" d="M82 156q0 -66 45 -111t111 -45t111.5 45t45.5 111t-46 111.5t-111 45.5q-66 0 -111 -45.5t-45 -111.5zM82 748q0 -66 45 -111t111 -45t111.5 45t45.5 111t-46 111.5t-111 45.5q-66 0 -111 -45.5t-45 -111.5z" />
<glyph unicode=";" horiz-adv-x="479" d="M82 156q0 -66 45 -111t111 -45l-62 -63q-16 -16 -16 -39q0 -29 25.5 -53.5t58.5 -24.5q29 0 47 18q25 25 44 57.5t33.5 70.5t21.5 77t7 74q0 80 -43 138t-116 58q-66 0 -111 -45.5t-45 -111.5zM82 748q0 -66 45 -111t111 -45t111.5 45t45.5 111t-46 111.5t-111 45.5 q-66 0 -111 -45.5t-45 -111.5z" />
<glyph unicode="&#x3c;" horiz-adv-x="585" d="M25 809q0 -45 36 -82l297 -295q33 -33 78 -33q27 0 47.5 11.5t33.5 28t20.5 35t7.5 34.5q0 45 -33 78l-223 223l223 223q33 33 33 76q0 47 -33 78t-78 31t-76 -31l-297 -297q-37 -37 -36 -80z" />
<glyph unicode="=" horiz-adv-x="911" d="M25 647q0 -35 23.5 -58.5t57.5 -23.5h701q35 0 57.5 23.5t22.5 58.5t-22.5 57.5t-57.5 22.5h-701q-35 0 -58 -22.5t-23 -57.5zM25 971q0 -35 23.5 -58.5t57.5 -23.5h701q35 0 57.5 23.5t22.5 58.5t-22.5 57.5t-57.5 22.5h-701q-35 0 -58 -22.5t-23 -57.5z" />
<glyph unicode="&#x3e;" horiz-adv-x="585" d="M41 508q0 -27 11 -47.5t27.5 -33.5t35 -20.5t35.5 -7.5q45 0 77 33l297 295q37 37 37 82q0 43 -37 80l-297 297q-31 31 -75 31q-57 0 -84 -37t-27 -70q0 -45 33 -78l223 -223l-223 -223q-33 -33 -33 -78z" />
<glyph unicode="?" horiz-adv-x="1212" d="M41 1235q0 -33 14.5 -60.5t38 -47t53 -31t58.5 -11.5q33 0 60.5 16.5t43.5 53.5q16 39 37 78t52.5 70.5t78.5 51t117 19.5q57 0 105.5 -18.5t84 -50t56 -73.5t20.5 -89q0 -57 -31.5 -103.5t-79 -86.5t-102.5 -77.5t-102 -79.5t-79 -91.5t-32 -110.5q0 -43 15.5 -71.5 t39 -45t48 -24t43.5 -7.5q47 0 82.5 28t56.5 75q18 43 59 83t91.5 79t103.5 82t97 94t72.5 113.5t28.5 142.5q0 125 -50 218t-133 156.5t-189.5 95.5t-218.5 32q-125 0 -225.5 -42t-170 -103.5t-106.5 -133.5t-37 -131zM406 156q0 -66 46 -111t111 -45q66 0 111 45t45 111 t-45 111.5t-111 45.5t-111.5 -45.5t-45.5 -111.5z" />
<glyph unicode="@" horiz-adv-x="1429" d="M41 809q0 -139 53 -262t144.5 -214t214 -144.5t262.5 -53.5q29 0 48 19.5t19 48.5t-19.5 48t-47.5 19q-111 0 -209 42t-172 116t-116 172t-42 209t42 209t116 172t172 116t209 42t209 -42t171.5 -116t115.5 -172t42 -209q0 -68 -18 -136.5t-47 -123.5t-62.5 -90 t-62.5 -35q-27 0 -43 21.5t-16 48.5v483q0 49 -21.5 84t-60.5 58.5t-91.5 34.5t-115.5 11q-133 0 -209 -51t-76 -121q0 -53 21.5 -66.5t52.5 -13.5q45 0 62.5 20.5t30.5 46.5t32.5 46.5t72.5 20.5t92.5 -17.5t39.5 -56.5q0 -33 -14.5 -47.5t-69.5 -30.5q-49 -14 -112 -23.5 t-120 -31t-96 -64.5t-39 -125q0 -51 21.5 -89t55.5 -62.5t76 -35.5t85 -11q59 0 112 14t101 61v-34q0 -47 18 -86t49 -67t70 -43t80 -15q72 0 134 49t107 126t71 170t26 181q0 139 -53.5 262t-144.5 214t-214 144.5t-262 53.5t-262 -53.5t-214.5 -144.5t-144.5 -214 t-53 -262zM559 659q0 80 90 93q74 10 127.5 27.5t57.5 17.5v-119q0 -25 -14.5 -44.5t-37 -31.5t-51.5 -19.5t-55 -7.5q-41 0 -79 17.5t-38 66.5z" />
<glyph unicode="A" d="M25 158q0 -61 42 -109.5t113 -48.5q49 0 91 28.5t59 77.5l116 392h476l116 -392q16 -49 58.5 -77.5t91.5 -28.5q41 0 69.5 15.5t47 38t27.5 51t9 53.5q0 27 -10 57l-424 1225q-14 41 -34.5 78.5t-48 65.5t-62.5 44.5t-78 16.5q-45 0 -80 -16.5t-61.5 -44.5t-47 -65.5 t-34.5 -78.5l-426 -1225q-10 -31 -10 -57zM516 737l168 566l166 -566h-334z" />
<glyph unicode="B" horiz-adv-x="1431" d="M94 162q0 -43 14.5 -74t38 -50.5t52 -28.5t57.5 -9h627q98 0 187 33t156.5 92t108.5 141t41 183q0 111 -34.5 187.5t-84 125.5t-101.5 76.5t-89 40.5q47 18 94 41.5t84 62.5t60.5 98.5t23.5 145.5q0 82 -37 153.5t-98 123.5t-142 82t-169 30h-629q-49 0 -81 -17.5 t-49.5 -43t-23.5 -53t-6 -46.5v-1294zM408 270v457h428q47 0 89 -18.5t72.5 -49t49 -72.5t18.5 -89t-18.5 -88t-49 -72t-72.5 -49.5t-89 -18.5h-428zM408 971v377h419q39 0 74 -14.5t60.5 -40t40 -60.5t14.5 -74t-14.5 -73.5t-40 -60.5t-60.5 -40t-74 -14h-419z" />
<glyph unicode="C" horiz-adv-x="1447" d="M41 809q0 -164 46 -314.5t137 -266t229.5 -185.5t322.5 -70q154 0 268.5 49.5t191.5 117t116 139t39 116.5q0 33 -15.5 61.5t-40 49t-54.5 33t-58 12.5q-29 0 -53.5 -14.5t-39.5 -42.5q-16 -35 -39.5 -78t-63.5 -82t-100.5 -65.5t-150.5 -26.5q-102 0 -181 50t-133 130 t-82 181.5t-28 205.5q0 102 28 203.5t82 181.5t133 130t181 50q90 0 150.5 -26.5t100.5 -64.5t63.5 -82t39.5 -77q14 -29 39 -43t56 -14q29 0 58.5 12.5t54 33t40 49t15.5 61.5q0 43 -39 114.5t-117 139t-192.5 118t-268.5 50.5q-184 0 -322.5 -70t-229.5 -185.5t-137 -267 t-46 -313.5z" />
<glyph unicode="D" horiz-adv-x="1472" d="M94 162q0 -43 14.5 -74t38 -50.5t52 -28.5t57.5 -9h557q150 0 264.5 70.5t193.5 185.5t120 259t41 294q0 147 -41 292.5t-120 259.5t-194.5 184.5t-263.5 70.5h-557q-49 0 -81 -17.5t-50.5 -43t-24.5 -53t-6 -46.5v-1294zM408 270v1078h288q121 0 202 -47.5t130 -123 t69.5 -172t20.5 -196.5t-20.5 -197.5t-69.5 -173.5t-130 -122t-202 -46h-288z" />
<glyph unicode="E" horiz-adv-x="1298" d="M94 162q0 -43 14.5 -74t38 -50.5t52 -28.5t57.5 -9h868q55 0 94 39t39 96q0 55 -38.5 94t-94.5 39h-716v459h602q57 0 96 40t39 95t-39 95t-96 40h-602v351h716q55 0 94 38.5t39 96.5q0 55 -38.5 94t-94.5 39h-868q-49 0 -81 -17.5t-50.5 -43t-24.5 -53t-6 -46.5v-1294z " />
<glyph unicode="F" horiz-adv-x="1271" d="M94 156q0 -66 45 -111t111 -45t112 45t46 111v544h575q57 0 96 40t39 96q0 55 -39 95t-96 40h-575v377h690q55 0 94 38.5t39 96.5q0 55 -39 94t-94 39h-842q-49 0 -81 -17.5t-50.5 -43t-24.5 -53t-6 -46.5v-1300z" />
<glyph unicode="G" horiz-adv-x="1517" d="M41 809q0 -164 46 -314.5t137 -266t229.5 -185.5t322.5 -70q123 0 223.5 36t178 95.5t134 134t93.5 152.5t54.5 152.5t17.5 132.5q0 84 -33 136t-105 52h-426q-53 0 -91 -38t-38 -91t38 -91t91 -38h189q33 0 59.5 -6t26.5 -43q0 -25 -18.5 -77t-65.5 -105t-127 -93 t-201 -40q-102 0 -181 50t-133 130t-82 181.5t-28 205.5q0 102 28 203.5t82 181.5t133 130t181 50q90 0 150.5 -26.5t100.5 -64.5t63.5 -82t39.5 -77q14 -29 39 -43t56 -14q29 0 58.5 12.5t54 33t40 49t15.5 61.5q0 43 -39 114.5t-117 140t-192.5 118t-268.5 49.5 q-184 0 -322.5 -70t-229.5 -185.5t-137 -267t-46 -313.5z" />
<glyph unicode="H" horiz-adv-x="1482" d="M94 156q0 -66 45 -111t111 -45t112 45t46 111v555h667v-555q0 -66 45 -111t111 -45t112 45t46 111v1304q0 66 -46.5 111t-111.5 45q-66 0 -111 -45t-45 -111v-479h-667v479q0 66 -46.5 111t-111.5 45q-66 0 -111 -45t-45 -111v-1304z" />
<glyph unicode="I" horiz-adv-x="501" d="M94 156q0 -66 45 -111t111 -45t112 45t46 111v1304q0 66 -46.5 111t-111.5 45q-66 0 -111 -45t-45 -111v-1304z" />
<glyph unicode="J" horiz-adv-x="1105" d="M25 436q0 -106 33.5 -191t95 -145.5t148.5 -93.5t194 -33q121 0 217 37t162.5 99.5t101.5 143.5t35 171v1036q0 66 -46 111t-112 45t-111 -45t-45 -111v-1036q0 -41 -16 -74t-45 -57.5t-65.5 -37.5t-75.5 -13q-92 0 -146.5 51t-54.5 143q0 76 -42 114t-93 38t-93 -38 t-42 -114z" />
<glyph unicode="K" horiz-adv-x="1345" d="M94 156q0 -66 45 -111t111 -45t112 45t46 111v438l170 172l475 -709q20 -29 51 -43t65 -14q39 0 68 14.5t47.5 36t27.5 48t9 48.5q0 51 -31 95l-516 723l395 403q33 33 33 84q0 66 -45 106.5t-102 40.5t-97 -40l-550 -594v495q0 66 -46.5 111t-111.5 45q-66 0 -111 -45 t-45 -111v-1304z" />
<glyph unicode="L" horiz-adv-x="1228" d="M94 162q0 -43 14.5 -74t38 -50.5t52 -28.5t57.5 -9h813q57 0 96 39t39 96q0 55 -39 94t-96 39h-661v1192q0 66 -46.5 111t-111.5 45q-66 0 -111 -45t-45 -111v-1298z" />
<glyph unicode="M" horiz-adv-x="1761" d="M94 147q0 -59 44 -103t104 -44q61 0 105 44t44 103v1065l297 -1065q18 -68 69.5 -107.5t123.5 -39.5t124 40t70 107l297 1065v-1065q0 -59 43 -103t105 -44q61 0 104 44t43 103v1254q0 49 -20.5 88t-55.5 67.5t-80 44t-94 15.5q-92 0 -156.5 -49t-89.5 -135l-290 -1033 l-291 1033q-25 86 -89.5 135t-156.5 49q-47 0 -92 -15.5t-80 -44t-56.5 -67.5t-21.5 -88v-1254z" />
<glyph unicode="N" horiz-adv-x="1482" d="M94 147q0 -59 44 -103t104 -44q61 0 105 44t44 103v1006l606 -1016q39 -63 91.5 -100t123.5 -37q37 0 69 13.5t55.5 38t38 56t14.5 68.5v1292q0 61 -44.5 104.5t-105.5 43.5q-59 0 -103 -43t-44 -105v-1005l-607 1016q-39 66 -91 101.5t-124 35.5q-74 0 -125 -51.5 t-51 -122.5v-1295z" />
<glyph unicode="O" horiz-adv-x="1548" d="M41 809q0 -164 46 -314.5t138 -267t229.5 -186.5t319.5 -70q180 0 317.5 70t229.5 186.5t139 267t47 314.5q0 162 -47 312.5t-139 267t-229.5 186.5t-317.5 70q-182 0 -319.5 -70t-229.5 -186.5t-138 -267t-46 -312.5zM336 809q0 104 24.5 205.5t78 181.5t136 129 t199.5 49t199 -49t135 -129t77.5 -181.5t24.5 -205.5t-24.5 -205.5t-77.5 -182.5t-135 -130t-199 -49t-199.5 49t-136 130t-78 182.5t-24.5 205.5z" />
<glyph unicode="P" horiz-adv-x="1331" d="M94 156q0 -66 45 -111t111 -45t112 45t46 111v422h362q106 0 201.5 40.5t166 111.5t111.5 165t41 203q0 106 -41 201.5t-111.5 165t-165.5 110.5t-202 41h-514q-49 0 -81 -17.5t-50.5 -43t-24.5 -53t-6 -46.5v-1300zM408 846v502h335q51 0 97.5 -19.5t81 -53.5t54 -80 t19.5 -97q0 -53 -19.5 -98.5t-54 -80t-80.5 -54t-98 -19.5h-335z" />
<glyph unicode="Q" horiz-adv-x="1548" d="M41 809q0 -164 46 -314.5t138 -266t229.5 -185.5t319.5 -70q111 0 201 25t190 88l107 -98q33 -33 84 -33q39 0 75.5 28.5t36.5 84.5q0 59 -45 100l-88 80q72 98 122 242.5t50 318.5q0 162 -47 312.5t-139 267t-229.5 186.5t-317.5 70q-182 0 -319.5 -70t-229.5 -186.5 t-138 -267t-46 -312.5zM336 809q0 104 24.5 205.5t78 181.5t136 129t199.5 49t199 -49t135 -129t77.5 -181.5t24.5 -205.5q0 -111 -27.5 -208t-62.5 -157l-67 62q-28 26 -67 26h-3q-33 0 -55.5 -12t-35.5 -28.5t-18.5 -37t-5.5 -34.5q0 -23 9.5 -46.5t27.5 -39.5l51 -49 q-49 -23 -84.5 -33t-97.5 -10q-117 0 -199.5 49t-136 130t-78 182.5t-24.5 205.5z" />
<glyph unicode="R" horiz-adv-x="1400" d="M94 156q0 -66 45 -111t111 -45t112 45t46 111v501h294q74 0 125.5 -14t84 -37.5t48 -50.5t19.5 -51l45 -377q6 -57 49 -92t103 -35q29 0 58.5 9t53 27.5t36.5 45.5t9 61l-47 428q-4 41 -24.5 75t-49 59.5t-64.5 42t-73 22.5q-25 6 -24 18q0 8 22 17q135 45 204 147.5 t69 241.5q0 88 -34 165t-91.5 134t-135 90t-163.5 33h-666q-49 0 -81 -17.5t-50.5 -43t-24.5 -53t-6 -46.5v-1300zM408 899v449h401q45 0 86 -17.5t71.5 -48.5t48 -72t17.5 -86q0 -47 -17.5 -88t-48 -71.5t-71.5 -48t-86 -17.5h-401z" />
<glyph unicode="S" horiz-adv-x="1349" d="M59 397q0 -68 32 -141.5t102.5 -137t181 -104.5t268.5 -41q127 0 245 31t208 93.5t144 159.5t54 230q0 117 -40 196t-105.5 131t-148 83t-170 52.5t-170 39t-148.5 43t-105.5 63.5t-39.5 101q0 86 67.5 137t214.5 51q49 0 100.5 -11t95.5 -34.5t76.5 -58.5t49.5 -82 q12 -37 40.5 -53.5t63.5 -16.5q27 0 53.5 9.5t48 27t35 43t13.5 58.5q0 45 -32 110.5t-101.5 125t-178 101.5t-262.5 42q-127 0 -233.5 -33t-184 -94.5t-121.5 -151.5t-46 -207q0 -104 38.5 -175t103 -119t146.5 -78.5t167 -54t167 -45t146.5 -52.5t103.5 -75t39 -111 q0 -100 -90 -153.5t-244 -53.5q-158 0 -230.5 65.5t-99.5 173.5q-10 43 -38.5 62.5t-63.5 19.5q-27 0 -54.5 -12t-49 -33.5t-35 -52.5t-13.5 -68z" />
<glyph unicode="T" horiz-adv-x="1347" d="M27 1483q0 -57 39.5 -96t95.5 -39h356v-1192q0 -66 45 -111t111 -45t110.5 45t44.5 111v1192h357q55 0 95 38.5t40 96.5q0 55 -40 94t-95 39h-1024q-55 0 -95 -39t-40 -94z" />
<glyph unicode="U" horiz-adv-x="1417" d="M94 485q0 -152 52.5 -251t138.5 -157.5t196.5 -81t227.5 -22.5t227.5 22.5t196.5 81t138 158t52 250.5v975q0 66 -45 111t-111 45t-111.5 -45t-45.5 -111v-975q0 -57 -26 -102t-68 -77t-96 -48t-111 -16t-111.5 16t-96.5 48t-67.5 77t-25.5 102v975q0 66 -46.5 111 t-111.5 45q-66 0 -111 -45t-45 -111v-975z" />
<glyph unicode="V" horiz-adv-x="1312" d="M25 1462q0 -25 8 -43l467 -1304q18 -53 59 -84t96 -31q57 0 97.5 30.5t58.5 84.5l469 1304q8 18 8 43q0 27 -12 54.5t-33.5 49t-52.5 36t-68 14.5q-47 0 -85 -22.5t-52 -67.5l-330 -1067l-327 1067q-14 45 -52 67.5t-86 22.5q-43 0 -73.5 -14.5t-51 -37t-30.5 -50 t-10 -52.5z" />
<glyph unicode="W" horiz-adv-x="1970" d="M25 1487q0 -8 4 -29l360 -1282q20 -74 69.5 -125t127.5 -51t129 50t67 126l203 924l203 -924q16 -76 67.5 -126t128.5 -50q78 0 127.5 51t69.5 125l361 1282q4 20 4 31q0 49 -38 88t-91 39q-70 0 -119 -40t-66 -108l-248 -1009l-217 1009q-14 68 -63 108t-119 40 t-119 -40t-63 -108l-217 -1009l-248 1009q-16 68 -65.5 108t-118.5 40q-51 0 -90 -39t-39 -90z" />
<glyph unicode="X" horiz-adv-x="1275" d="M41 158q0 -37 14.5 -66t37 -49t51 -31.5t59.5 -11.5q37 0 70.5 16.5t54.5 51.5l311 538l309 -538q20 -35 54 -51.5t71 -16.5q25 0 52.5 9t52 27.5t41 48.5t16.5 73t-25 80l-407 593l373 545q26 38 26 81q0 23 -7 50t-25.5 51.5t-49 41t-80.5 16.5q-37 0 -69.5 -15.5 t-52.5 -50.5l-279 -483l-281 483q-20 35 -53 50.5t-69 15.5q-47 0 -78 -16.5t-49.5 -40t-25.5 -51t-7 -48.5q0 -47 24 -84l375 -545l-409 -593q-25 -37 -25 -80z" />
<glyph unicode="Y" horiz-adv-x="1261" d="M25 1460q0 -16 3 -31.5t13 -31.5l434 -764v-479q0 -23 10.5 -49.5t30 -50t48 -39t67.5 -15.5q41 0 70.5 14.5t49 37t28.5 49t9 53.5v479l433 764q10 16 13 31.5t3 31.5q0 45 -18.5 75t-43 48.5t-52 25.5t-46.5 7q-43 0 -79.5 -19.5t-55.5 -60.5l-311 -680l-312 680 q-18 41 -55 60.5t-78 19.5q-49 0 -80.5 -17.5t-49 -42t-24.5 -51t-7 -45.5z" />
<glyph unicode="Z" horiz-adv-x="1507" d="M94 180q0 -31 12.5 -62.5t36 -58t56 -43t75.5 -16.5h1043q55 0 95 39t40 96q0 55 -40 94t-95 39h-791l883 1080q33 39 33 88q0 31 -12.5 63.5t-36 58t-57 42t-74.5 16.5h-981q-55 0 -95.5 -39t-40.5 -94q0 -57 40 -96t96 -39h735l-889 -1080q-33 -39 -33 -88z" />
<glyph unicode="[" horiz-adv-x="688" d="M94 -53q0 -66 20.5 -108t53.5 -66.5t69.5 -33.5t71.5 -9h215q45 0 77 31.5t32 76.5t-32 77t-77 32h-106q-53 0 -81 32.5t-28 73.5v1510q0 57 35 82.5t74 25.5h106q45 0 77 31t32 76t-32 76.5t-77 31.5h-215q-61 0 -103 -20.5t-66.5 -53t-35 -70.5t-10.5 -71v-1724z" />
<glyph unicode="\" horiz-adv-x="935" d="M25 1534q0 -20 10 -45l670 -1430q14 -29 40.5 -45t57.5 -16q47 0 77.5 32.5t30.5 78.5q0 18 -10 43l-670 1429q-14 29 -40.5 45t-57.5 16q-10 0 -27.5 -4t-36 -15t-31.5 -32.5t-13 -56.5z" />
<glyph unicode="]" horiz-adv-x="673" d="M41 -162q0 -45 31.5 -76.5t77.5 -31.5h215q33 0 70.5 9t70.5 33.5t53.5 66.5t20.5 108v1724q0 33 -10.5 71t-35 70.5t-66.5 53t-103 20.5h-215q-45 0 -77 -31.5t-32 -76.5t31.5 -76t77.5 -31h106q39 0 74 -25.5t35 -82.5v-1510q0 -41 -28 -73.5t-81 -32.5h-106 q-45 0 -77 -32t-32 -77z" />
<glyph unicode="^" horiz-adv-x="573" d="M41 1395q0 -25 18.5 -52.5t61.5 -27.5q35 0 57 22l109 109l108 -109q23 -23 58 -22q43 0 61 27.5t18 52.5q0 16 -6 32.5t-16 26.5l-162 162q-29 29 -61 29q-33 0 -62 -29l-162 -162q-10 -10 -16 -26.5t-6 -32.5z" />
<glyph unicode="_" horiz-adv-x="1292" d="M0 -270q0 -45 31.5 -76t77.5 -31h1185q45 0 76 31t31 76t-31 76.5t-76 31.5h-1185q-45 0 -77 -31.5t-32 -76.5z" />
<glyph unicode="`" horiz-adv-x="454" d="M41 1473q0 -25 9 -46.5t32 -35.5l203 -129q31 -20 59 -21q18 0 44 13.5t26 56.5q0 31 -19 61l-131 201q-29 43 -82 43q-23 0 -47 -9.5t-45.5 -26.5t-35 -44t-13.5 -63z" />
<glyph unicode="a" horiz-adv-x="1155" d="M41 330q0 -82 35 -143.5t91 -103.5t127 -62.5t140 -20.5q109 0 195 26.5t164 100.5q6 -55 46 -91t95 -36q59 0 100 41t41 100v731q0 82 -35.5 140.5t-100.5 97.5t-153 57.5t-192 18.5q-111 0 -199 -22.5t-149.5 -62.5t-94 -95.5t-32.5 -120.5q0 -68 36 -93.5t85 -25.5 q53 0 81.5 16.5t46 41t30 54t32 54t52 41t91.5 16.5q45 0 86 -8t72 -23.5t48.5 -39t17.5 -54.5q0 -66 -56.5 -95.5t-140.5 -45.5t-181 -32.5t-181 -53.5t-140.5 -108.5t-56.5 -198.5zM332 354q0 115 149 142q123 23 196 45t116 32v-198q0 -41 -24 -73t-61.5 -53.5t-86 -32.5 t-95.5 -11q-55 0 -93 12t-60.5 33.5t-31.5 48.5t-9 55z" />
<glyph unicode="b" horiz-adv-x="1222" d="M94 147q0 -59 44 -103t104 -44q61 0 105 44t44 103q12 -18 35 -43.5t62.5 -48t99 -39t145.5 -16.5q100 0 183 43t142.5 122t91.5 187.5t32 239.5t-32 240.5t-91.5 188.5t-142 122t-183.5 43q-76 0 -133 -22.5t-97 -50.5t-64.5 -50.5t-37.5 -22.5q-10 0 -10 27v401 q0 61 -44 104.5t-105 43.5q-59 0 -103.5 -43t-44.5 -105v-1321zM365 592q0 164 71.5 258t200.5 94q131 0 202.5 -94t71.5 -258q0 -162 -71.5 -256t-202.5 -94q-129 0 -200.5 94t-71.5 256z" />
<glyph unicode="c" horiz-adv-x="1142" d="M41 580q0 -137 43 -249t119 -192t179 -123t224 -43q139 0 233.5 45t153 104.5t84 115.5t25.5 79q0 31 -16.5 58.5t-41 48t-54 33t-56.5 12.5q-29 0 -53.5 -15.5t-32.5 -52.5q-6 -27 -22.5 -58.5t-45 -60t-72.5 -48t-102 -19.5q-127 0 -198.5 88t-71.5 277q0 188 71.5 276 t198.5 88q57 0 100.5 -19.5t73 -48t46 -60.5t22.5 -58q10 -37 33.5 -52.5t52.5 -15.5t58.5 12.5t54 33t40 48t15.5 58.5q0 23 -27.5 79t-88 115.5t-155 104.5t-225.5 45q-121 0 -224 -43t-179 -123t-119 -191.5t-43 -248.5z" />
<glyph unicode="d" horiz-adv-x="1222" d="M41 592q0 -131 31.5 -239.5t90 -187.5t140.5 -122t184 -43q88 0 146.5 15.5t96.5 38t60.5 48t40.5 45.5q0 -59 43.5 -103t104.5 -44t105 44t44 103v1321q0 61 -44 104.5t-105 43.5t-104.5 -43t-43.5 -105v-401q0 -27 -10 -27q-12 0 -36.5 22.5t-65.5 50.5t-98.5 50.5 t-133.5 22.5q-102 0 -184 -43t-140.5 -122t-90 -188.5t-31.5 -240.5zM309 592q0 164 73 258t202 94t201.5 -94t72.5 -258q0 -162 -72.5 -256t-201.5 -94t-202 94t-73 256z" />
<glyph unicode="e" horiz-adv-x="1165" d="M41 580q0 -123 38 -232.5t110.5 -192.5t179 -132.5t241.5 -49.5q119 0 205 36t143.5 84t85 96.5t27.5 74.5q0 27 -12 52.5t-30.5 46t-43 33t-49.5 12.5q-39 0 -70 -37q-35 -41 -62.5 -71t-56 -48.5t-61.5 -27.5t-76 -9q-72 0 -126 24.5t-91 61.5t-55.5 77t-18.5 71 q0 25 11.5 40t34.5 15h655q51 0 77.5 47t26.5 119q0 76 -30.5 166t-95 167.5t-164 130t-236.5 52.5q-141 0 -245.5 -49.5t-174 -132t-103.5 -192.5t-34 -232zM334 741q0 27 16.5 62t48 66.5t81.5 53t118 21.5t117 -22.5t80.5 -54t47 -66.5t15.5 -62q0 -39 -27 -39h-466 q-31 0 -31 41z" />
<glyph unicode="f" horiz-adv-x="845" d="M41 1065q0 -41 27.5 -67.5t66.5 -26.5h86v-824q0 -59 44 -103t106 -44q59 0 103 44t44 103v824h146q39 0 66.5 26.5t27.5 67.5q0 39 -28 66.5t-66 27.5h-146v27q0 109 39 148.5t127 39.5q72 0 96.5 34t24.5 87q0 76 -64.5 98.5t-171.5 22.5q-104 0 -171.5 -31t-106.5 -87 t-54.5 -136t-15.5 -176v-27h-86q-39 0 -66.5 -27.5t-27.5 -66.5z" />
<glyph unicode="g" horiz-adv-x="1255" d="M41 621q0 -115 40 -218.5t111.5 -181.5t173 -123t222.5 -45q74 0 127 13.5t90 34t60.5 44t39.5 45.5v-71q0 -61 -8 -116.5t-37 -97.5t-84 -67.5t-147 -25.5t-140.5 26.5t-79 58t-56 58.5t-72.5 27q-51 0 -89 -38t-38 -94q0 -43 26 -83q41 -61 89 -100.5t104.5 -61 t120 -29.5t135.5 -8q100 0 198.5 27.5t175 82t125 135.5t48.5 187v1038q0 55 -40 94t-96 39q-55 0 -95 -33.5t-40 -99.5q-10 10 -34.5 35t-62.5 49.5t-93.5 44t-126.5 19.5q-121 0 -222.5 -45t-173 -123t-111.5 -180.5t-40 -216.5zM305 621q0 74 23.5 134t64.5 102 t97.5 64.5t121.5 22.5q68 0 124.5 -27.5t97 -72.5t63.5 -103.5t23 -119.5q0 -68 -24 -126.5t-64.5 -102.5t-97 -69.5t-122.5 -25.5t-122 22.5t-97 64.5t-64.5 102.5t-23.5 134.5z" />
<glyph unicode="h" horiz-adv-x="1171" d="M94 147q0 -59 44 -103t104 -44q61 0 105 44t44 103v572q0 86 58.5 144.5t142.5 58.5q86 0 144.5 -58.5t58.5 -142.5v-574q0 -59 44 -103t105 -44q59 0 103.5 44t44.5 103v674q0 76 -26 142.5t-73 115.5t-117.5 78t-158.5 29q-66 0 -119 -21.5t-93 -46t-66.5 -46 t-39.5 -21.5q-8 0 -8 12v405q0 61 -44 104.5t-105 43.5q-59 0 -103.5 -43t-44.5 -105v-1321z" />
<glyph unicode="i" horiz-adv-x="428" d="M66 147q0 -59 43 -103t104 -44t105 43t44 104v863q0 61 -44 105t-105 44q-59 0 -103 -44t-44 -105v-863zM66 1468q0 -61 44 -104t103 -43q61 0 105 43t44 104t-44 104.5t-105 43.5q-59 0 -103 -43.5t-44 -104.5z" />
<glyph unicode="j" horiz-adv-x="552" d="M-137 -297q0 -80 77.5 -107.5t235.5 -27.5q90 0 148.5 26.5t91.5 68.5t45 95.5t12 106.5v1145q0 61 -44 105t-105 44q-59 0 -103.5 -44t-44.5 -105v-1010q0 -59 -11 -91t-31.5 -48.5t-48 -19.5t-60.5 -3q-78 0 -120 -29.5t-42 -105.5zM176 1468q0 -61 44 -104t104 -43 q61 0 105 43t44 104t-44 104.5t-105 43.5q-59 0 -103.5 -43.5t-44.5 -104.5z" />
<glyph unicode="k" horiz-adv-x="1136" d="M94 147q0 -59 44 -103t104 -44q61 0 105 44t44 103v234l146 145l299 -477q16 -27 42.5 -38t55.5 -11q43 0 73.5 16.5t50 39t29 49t9.5 49.5q0 39 -23 73l-336 500l240 238q20 18 30.5 43.5t10.5 50.5q0 31 -12.5 54.5t-31 39.5t-41 24.5t-40.5 8.5q-51 0 -88 -41 l-414 -455v778q0 61 -44 104.5t-105 43.5q-59 0 -103.5 -43t-44.5 -105v-1321z" />
<glyph unicode="l" horiz-adv-x="485" d="M94 147q0 -59 43 -103t105 -44q61 0 105 43t44 104v1321q0 61 -44 104.5t-105 43.5q-59 0 -103.5 -43t-44.5 -105v-1321z" />
<glyph unicode="m" horiz-adv-x="1869" d="M80 147q0 -59 44 -103t105 -44t104.5 44t43.5 103v588q0 86 59.5 145.5t145.5 59.5t145 -59.5t59 -145.5v-588q0 -59 44 -103t106 -44q59 0 103 44t44 103v588q0 86 59.5 145.5t145.5 59.5t145.5 -59.5t59.5 -145.5v-588q0 -59 43 -103t104 -44t105.5 44t44.5 103v744 q0 82 -36 138t-88 91t-112.5 50.5t-107.5 15.5q-94 0 -159.5 -17.5t-112 -44t-75 -58.5t-46.5 -60q-23 33 -49.5 64.5t-65.5 57t-93 42t-134 16.5q-68 0 -122 -15.5t-95 -38t-70 -48t-47 -46.5q0 59 -43 103.5t-105 44.5q-61 0 -105 -44t-44 -104v-891z" />
<glyph unicode="n" horiz-adv-x="1183" d="M80 147q0 -59 44 -103t105 -44t104.5 44t43.5 103v578q0 45 17.5 84t46 67.5t68.5 46t83 17.5q45 0 84 -17.5t67.5 -46t46 -67.5t17.5 -84v-578q0 -59 44 -103t105 -44t104.5 44t43.5 103v676q0 82 -30 148.5t-82 114t-121.5 74t-147.5 26.5q-70 0 -125 -15.5t-98 -37 t-74 -48t-49 -47.5q0 59 -43 103.5t-105 44.5q-61 0 -105 -44t-44 -104v-891z" />
<glyph unicode="o" horiz-adv-x="1267" d="M41 580q0 -135 46 -247t126 -192t188.5 -124t231.5 -44q125 0 233.5 44t188.5 124t126 191.5t46 247.5q0 135 -46 246.5t-126 191.5t-188.5 124t-233.5 44q-123 0 -231.5 -44t-188.5 -124t-126 -191.5t-46 -246.5zM309 580q0 78 22.5 148.5t64.5 124.5t101.5 86t135.5 32 t136 -32t101 -86t63.5 -124.5t22.5 -148.5t-22.5 -150t-63.5 -125t-101 -85t-136 -32t-135.5 32t-101.5 85t-64.5 125t-22.5 150z" />
<glyph unicode="p" horiz-adv-x="1222" d="M94 -283q0 -61 44 -105t104 -44q61 0 105 44t44 105v402q0 27 10 26q12 0 37 -22.5t65 -50t97 -50t133 -22.5q100 0 183 43t142.5 122t91.5 187.5t32 239.5t-32 240.5t-91.5 188.5t-142.5 122t-183 43q-80 0 -136 -13.5t-96 -35t-65.5 -48t-44.5 -51.5q0 59 -44 103.5 t-105 44.5q-59 0 -103.5 -44t-44.5 -104v-1321zM365 592q0 164 71.5 258t200.5 94q131 0 202.5 -94t71.5 -258q0 -162 -71.5 -256t-202.5 -94q-129 0 -200.5 94t-71.5 256z" />
<glyph unicode="q" horiz-adv-x="1220" d="M41 592q0 -131 31.5 -239.5t90 -187.5t140.5 -122t184 -43q76 0 133.5 22.5t97.5 50t64.5 50t36.5 22.5q10 0 10 -26v-402q0 -61 44.5 -105t105.5 -44t104 44t43 105v1321q0 59 -43 103.5t-104 44.5t-104.5 -44t-43.5 -104q-12 18 -34.5 44t-62.5 48.5t-99.5 39 t-147.5 16.5q-102 0 -184 -43t-140.5 -122t-90 -188.5t-31.5 -240.5zM309 592q0 164 73 258t202 94t201.5 -94t72.5 -258q0 -162 -72.5 -256t-201.5 -94t-202 94t-73 256z" />
<glyph unicode="r" horiz-adv-x="796" d="M80 147q0 -59 44 -103t103 -44q61 0 105.5 43t44.5 104v459q0 35 6 76t24.5 81t54.5 75.5t95 58.5q33 12 70 19.5t68.5 19.5t53 35.5t21.5 70.5q0 57 -29.5 100.5t-111.5 43.5q-37 0 -74 -15.5t-70.5 -37t-61.5 -48t-46 -47.5q0 59 -43 103.5t-105 44.5q-61 0 -105 -44 t-44 -104v-891z" />
<glyph unicode="s" horiz-adv-x="1097" d="M51 336q0 -55 34 -119.5t99.5 -118t161.5 -89.5t221 -36q98 0 185.5 27t152 79t102 129t37.5 179q0 96 -52 154.5t-130 94.5t-168 57.5t-167.5 41t-130 46t-52.5 75.5q0 59 53.5 87t132.5 28q37 0 75 -8.5t72 -25.5t61.5 -44t43.5 -66q10 -29 33 -40t47 -11 q23 0 46.5 9.5t43 24.5t31.5 37.5t12 49.5q0 43 -33.5 93t-94 93t-146.5 73t-191 30q-102 0 -186 -26.5t-144.5 -74t-93 -115t-32.5 -147.5q0 -100 51 -159.5t127 -96.5t166 -58.5t165.5 -43t127 -52t51.5 -85.5q0 -35 -17.5 -60.5t-45 -43t-62.5 -27t-70 -9.5 q-106 0 -171.5 53.5t-100.5 139.5q-12 31 -41 45t-64 14q-51 0 -95 -28.5t-44 -75.5z" />
<glyph unicode="t" horiz-adv-x="798" d="M41 1065q0 -41 27.5 -67.5t66.5 -26.5h86v-824q0 -59 44 -103t106 -44q59 0 103 44t44 103v824h146q39 0 66.5 26.5t27.5 67.5q0 39 -28 66.5t-66 27.5h-146v27v229q0 61 -44 104.5t-103 43.5q-61 0 -105.5 -43t-44.5 -105v-229v-27h-86q-39 0 -66.5 -27.5t-27.5 -66.5z " />
<glyph unicode="u" horiz-adv-x="1183" d="M80 362q0 -82 30.5 -148.5t83 -114.5t122 -73.5t147.5 -25.5q70 0 125 15.5t98 37t74 47t49 47.5q0 -59 43 -103t104 -44t104.5 44t43.5 103v891q0 59 -43 103.5t-105 44.5q-61 0 -105 -44t-44 -104v-577q0 -45 -17.5 -84t-46 -68.5t-67.5 -46t-84 -16.5q-43 0 -83 16.5 t-68.5 46t-46 68.5t-17.5 84v577q0 59 -43 103.5t-105 44.5q-61 0 -105 -44t-44 -104v-676z" />
<glyph unicode="v" horiz-adv-x="1042" d="M27 1051q0 -18 6 -37l305 -881q23 -61 70 -97t112 -36q66 0 113 36t69 97l308 881q6 18 6 37q0 33 -14.5 58.5t-36 41.5t-47 25.5t-50.5 9.5q-41 0 -74.5 -19.5t-45.5 -60.5l-228 -756l-225 756q-12 41 -46 60.5t-75 19.5q-53 0 -100 -35t-47 -100z" />
<glyph unicode="w" horiz-adv-x="1695" d="M27 1044q0 -23 6 -43l260 -854q20 -66 69.5 -106.5t126.5 -40.5q66 0 108 43t60 104l191 646l188 -646q18 -61 64.5 -104t103.5 -43q78 0 127 41t70 106l262 854q6 20 6 41q0 53 -39 98.5t-98 45.5q-47 0 -84 -29t-49 -76l-195 -706l-190 682q-16 59 -60.5 94t-105.5 35 t-106.5 -35t-61.5 -94l-191 -682l-192 706q-12 47 -50 76t-85 29q-23 0 -46.5 -8.5t-44 -25.5t-32.5 -44t-12 -64z" />
<glyph unicode="x" horiz-adv-x="1042" d="M41 137q0 -35 14.5 -60.5t37 -42t48 -25.5t49.5 -9q29 0 51.5 10t39.5 35l241 373l240 -373q16 -25 38.5 -35t51.5 -10q41 0 69.5 14.5t46 36t25.5 45t8 41.5q0 16 -4 30.5t-14 27.5l-332 419l281 392q18 27 18 59q0 51 -38 86t-89 35q-29 0 -52 -11.5t-40 -35.5 l-209 -330l-211 330q-16 25 -39.5 36t-52.5 11q-51 0 -89 -35t-38 -86q0 -33 19 -59l280 -392l-332 -419q-10 -12 -14 -26.5t-4 -31.5z" />
<glyph unicode="y" horiz-adv-x="1091" d="M27 1030q0 -35 12 -65l342 -869q18 -47 26.5 -81.5t8.5 -63.5q0 -47 -21.5 -72.5t-58.5 -38t-85 -14.5t-101 -2q-55 0 -81 -28.5t-26 -69.5q0 -29 11.5 -56.5t33 -50t51 -37t68.5 -14.5h106q49 0 103.5 7t103.5 33.5t91 76t71 135.5l377 1175q6 18 6 39q0 70 -49 111 t-111 41q-47 0 -87 -24.5t-52 -71.5l-197 -777l-252 779q-14 45 -53 68.5t-84 23.5q-43 0 -72.5 -15.5t-47 -38t-25.5 -49t-8 -51.5z" />
<glyph unicode="z" horiz-adv-x="1142" d="M41 152q0 -31 12.5 -57.5t32.5 -48t48 -34t59 -12.5h788q51 0 86 33t35 88q0 51 -35 86t-86 35h-537l609 667q49 55 49 119q0 63 -45 110.5t-131 47.5h-693q-51 0 -85.5 -36t-34.5 -85q0 -51 34.5 -86t85.5 -35h459l-606 -684q-45 -51 -45 -108z" />
<glyph unicode="{" horiz-adv-x="878" d="M55 647q0 -57 19.5 -98t50.5 -66.5t69.5 -38t77.5 -12.5h13v-485q0 -66 21.5 -108t54 -66.5t70.5 -33.5t69 -9h217q45 0 75.5 31.5t30.5 76.5t-30.5 77t-75.5 32h-109q-53 0 -80.5 32.5t-27.5 73.5v594h-107q-57 0 -82.5 35t-25.5 74v106q0 57 34.5 83t73.5 26h107v592 q0 57 34.5 82.5t73.5 25.5h109q45 0 75.5 31t30.5 76t-30.5 76.5t-75.5 31.5h-217q-61 0 -103.5 -20.5t-67 -53t-34.5 -70.5t-10 -71v-485h-13q-61 0 -103 -20.5t-66.5 -52.5t-36 -69.5t-11.5 -72.5v-324z" />
<glyph unicode="|" horiz-adv-x="403" d="M94 0q0 -45 31 -77t76 -32t76.5 32t31.5 77v1616q0 45 -31.5 76.5t-76.5 31.5t-76 -31.5t-31 -76.5v-1616z" />
<glyph unicode="}" horiz-adv-x="878" d="M55 -162q0 -45 31 -76.5t76 -31.5h217q31 0 68.5 9t70.5 33.5t54.5 66.5t21.5 108v485h12q39 0 78 12.5t69.5 38t50 66.5t19.5 98v324q0 35 -11 72.5t-35.5 69.5t-66.5 52.5t-104 20.5h-12v485q0 33 -10.5 71t-35 70.5t-66.5 53t-103 20.5h-217q-45 0 -76 -31.5 t-31 -76.5t31 -76t76 -31h108q39 0 74 -25.5t35 -82.5v-592h106q39 0 74 -25.5t35 -83.5v-106q0 -39 -26 -74t-83 -35h-106v-594q0 -41 -27.5 -73.5t-81.5 -32.5h-108q-45 0 -76 -32t-31 -77z" />
<glyph unicode="~" horiz-adv-x="892" d="M41 1456q0 -55 42 -95t95 -40q33 0 53.5 15.5t37 32.5t31.5 32.5t38 15.5q12 0 29 -6l202 -80q29 -10 70 -10q39 0 77 14.5t68.5 39t49 58t18.5 72.5q0 55 -40 95t-95 40q-33 0 -53.5 -15t-37 -32.5t-31.5 -33t-38 -15.5q-16 0 -31 6l-202 80q-31 10 -68 10 q-41 0 -79 -14t-68.5 -38.5t-49 -58.5t-18.5 -73z" />
<glyph unicode="&#xa1;" horiz-adv-x="501" d="M94 1460q0 -66 45 -110.5t111 -44.5t112 45t46 110q0 66 -46.5 111t-111.5 45q-66 0 -111 -45t-45 -111zM121 129q0 -53 38 -91t91 -38t91 38t38 91v911q0 53 -38 91t-91 38t-91 -37.5t-38 -91.5v-911z" />
<glyph unicode="&#xa2;" horiz-adv-x="1142" d="M41 877q0 -137 43 -247t113.5 -187.5t164 -120.5t191.5 -50v-110q0 -23 15.5 -38t37.5 -15q23 0 38 15t15 38v110q104 2 186.5 44t138.5 97.5t87 113t31 87.5q0 31 -16.5 58.5t-41 48t-54 33t-56.5 12.5q-29 0 -52.5 -16.5t-33.5 -51.5q-6 -27 -21.5 -56.5t-39 -56 t-55.5 -46t-73 -21.5v717q39 -8 72 -27.5t57.5 -45t39 -54.5t20.5 -55q8 -35 31.5 -51.5t54.5 -16.5q27 0 56.5 12.5t54 33t41 48t16.5 58.5q0 43 -35 101t-95.5 110.5t-141 90.5t-171.5 42v108q0 23 -15 39.5t-38 16.5t-38 -16.5t-15 -39.5v-108q-104 -10 -197.5 -54.5 t-163 -121t-110.5 -185t-41 -243.5zM336 877q0 94 20.5 159.5t51 108.5t69.5 64.5t76 25.5v-719q-43 6 -83 27.5t-69.5 64.5t-47 108.5t-17.5 160.5z" />
<glyph unicode="&#xa3;" horiz-adv-x="1245" d="M41 809q0 -35 25.5 -60.5t60.5 -25.5h170q23 -59 30 -90t7 -53q0 -68 -34 -119t-76 -93t-75.5 -81t-33.5 -84q0 -16 8 -39t24.5 -44.5t39 -36.5t51.5 -15q23 0 47 7t48.5 16t50.5 17.5t54 8.5q70 0 120 -22.5t97 -49.5t100.5 -49.5t133.5 -22.5q150 0 232.5 47.5 t82.5 133.5q0 74 -41 113.5t-102 39.5q-25 0 -40 -6t-31.5 -12t-39 -12.5t-61.5 -6.5q-68 0 -112 15.5t-81 34t-72.5 34t-84.5 15.5q-10 0 -20.5 -1t-22.5 -3q12 16 36.5 44.5t49 65.5t43 79t18.5 85q0 10 -3 31.5t-13 52.5h161q35 0 60.5 25.5t25.5 60.5t-25.5 60.5 t-60.5 25.5h-231q-27 51 -49.5 91t-38.5 77t-25.5 72.5t-9.5 83.5q0 66 54.5 110.5t154.5 44.5q82 0 131 -22.5t77 -57t39 -74.5t21 -77q10 -41 39 -60.5t66 -19.5q31 0 64.5 13.5t61 36t45 53t17.5 65.5q0 68 -39 140.5t-111.5 133t-176 100.5t-234.5 40q-100 0 -198.5 -25 t-175 -76t-125 -132t-48.5 -191q0 -33 10.5 -75t27 -85t36.5 -86t41 -80h-84q-35 0 -60.5 -25.5t-25.5 -60.5z" />
<glyph unicode="&#xa4;" horiz-adv-x="1224" d="M41 115q0 -37 28.5 -66t65.5 -29q39 0 68 29l184 184q47 -31 104.5 -48t120.5 -17t121 17.5t107 47.5l182 -184q29 -29 68 -29q37 0 65.5 29t28.5 66q0 39 -29 67l-184 185q31 49 48 106t17 119q0 61 -17.5 118.5t-47.5 106.5l184 184q29 29 29 68q0 37 -29 65.5 t-65 28.5q-39 0 -68 -28l-184 -185q-47 31 -104.5 48.5t-121.5 17.5q-61 0 -118.5 -17.5t-106.5 -48.5l-184 185q-29 29 -68 28q-37 0 -65.5 -28.5t-28.5 -65.5q0 -39 29 -68l184 -184q-31 -47 -48.5 -104.5t-17.5 -120.5q0 -61 17.5 -118.5t48.5 -106.5l-184 -185 q-29 -29 -29 -67zM377 592q0 49 18.5 92t50 75t74.5 50t92 18t92.5 -18t75 -50t50 -75t18.5 -92t-18.5 -92t-50 -75t-74.5 -50.5t-93 -18.5q-49 0 -92 18.5t-74.5 50.5t-50 75t-18.5 92z" />
<glyph unicode="&#xa5;" horiz-adv-x="1261" d="M25 1460q0 -16 3 -31.5t13 -31.5l281 -494h-144q-35 0 -58.5 -23.5t-23.5 -56.5q0 -35 23.5 -58.5t58.5 -23.5h236l61 -108h-190q-33 0 -56.5 -22.5t-23.5 -57.5t23.5 -57.5t56.5 -22.5h190v-319q0 -23 9.5 -49.5t28.5 -50t49 -39t69 -15.5q41 0 70.5 14.5t48 37t27.5 49 t9 53.5v319h189q35 0 58.5 22.5t23.5 57.5t-23.5 57.5t-58.5 22.5h-189l62 108h235q35 0 57.5 23.5t22.5 58.5q0 33 -22.5 56.5t-57.5 23.5h-143l281 494q10 16 13 31.5t3 31.5q0 37 -14.5 65.5t-38 48t-52 31t-57.5 11.5q-41 0 -77.5 -19.5t-55.5 -60.5l-311 -680l-312 680 q-18 41 -55 60.5t-78 19.5q-43 0 -72.5 -15.5t-50 -39t-29.5 -50t-9 -51.5z" />
<glyph unicode="&#xa6;" horiz-adv-x="485" d="M94 147q0 -59 43 -103t105 -44q61 0 105 43t44 104v439q0 61 -44 104t-105 43q-59 0 -103.5 -43t-44.5 -104v-439zM94 1028q0 -59 43 -103t105 -44q61 0 105 43t44 104v440q0 61 -44 104.5t-105 43.5q-59 0 -103.5 -43t-44.5 -105v-440z" />
<glyph unicode="&#xa7;" horiz-adv-x="1241" d="M55 965q0 -68 33 -138.5t115 -117.5l491 -281q27 -16 45.5 -46t18.5 -71q0 -59 -39 -98t-98 -39q-70 0 -122.5 50t-52.5 124q0 35 -23.5 58.5t-57.5 23.5q-35 0 -58.5 -23.5t-23.5 -58.5q0 -70 26.5 -131t72.5 -107.5t107.5 -73t131.5 -26.5t131 26.5t107 73t72.5 108 t26.5 130.5v19q47 8 89.5 33.5t73 64.5t48 86t17.5 100q0 68 -34 138.5t-112 115.5l-481 279q-33 18 -54.5 49t-21.5 74q0 55 39 96t99 41q70 0 122 -50.5t52 -123.5q0 -35 23.5 -58.5t58.5 -23.5t58 23.5t23 58.5q0 70 -26.5 131t-72.5 107t-107.5 73t-130.5 27 q-70 0 -131.5 -27t-107.5 -73t-72.5 -107.5t-26.5 -130.5v-19q-47 -8 -89 -34.5t-73 -64.5t-48.5 -87t-17.5 -100zM270 965q0 35 22.5 57t57.5 22q12 0 21.5 -4t19.5 -8l543 -313q37 -20 37 -68q0 -35 -22.5 -57.5t-57.5 -22.5q-20 0 -37 9l-543 315q-41 25 -41 70z" />
<glyph unicode="&#xa8;" horiz-adv-x="622" d="M41 1495q0 -51 36 -87t85 -36q51 0 87 36t36 87q0 49 -36 85t-87 36q-49 0 -85 -36t-36 -85zM338 1495q0 -51 36 -87t85 -36q51 0 87 36t36 87q0 49 -36 85t-87 36q-49 0 -85 -36t-36 -85z" />
<glyph unicode="&#xa9;" horiz-adv-x="1697" d="M41 809q0 -168 63.5 -315.5t173 -257t257 -173t313.5 -63.5q168 0 315.5 63.5t257 173t173 257t63.5 315.5q0 166 -63.5 313.5t-173 257t-257 173t-315.5 63.5q-166 0 -313.5 -63.5t-257 -173t-173 -257t-63.5 -313.5zM176 809q0 139 53.5 262t144.5 214t213 144.5 t261 53.5t262 -53.5t214 -144.5t144.5 -214t53.5 -262t-53.5 -262t-144.5 -214t-214 -144.5t-262 -53.5t-261 53.5t-213 144.5t-144.5 214t-53.5 262zM399 809q0 -98 28 -188.5t83 -160t138 -111.5t194 -42q92 0 160.5 29t114.5 69.5t69.5 82.5t23.5 71q0 41 -32.5 67.5 t-67.5 26.5q-16 0 -31.5 -8t-23.5 -27q-10 -20 -23.5 -45.5t-38 -49t-61.5 -39t-90 -15.5q-61 0 -108.5 29.5t-80 78t-49 110t-16.5 122.5t16.5 122.5t49 110t79.5 78t109 29.5q53 0 90 -16.5t61.5 -39t37.5 -49t24 -47.5q8 -18 23.5 -26t31.5 -8q35 0 67.5 26.5t32.5 67.5 q0 31 -24.5 74t-70.5 82.5t-115.5 67.5t-157.5 28q-111 0 -194 -42t-138 -111t-83 -159t-28 -188z" />
<glyph unicode="&#xaa;" horiz-adv-x="741" d="M41 797q0 -51 21.5 -89t55.5 -62.5t76 -36t85 -11.5q66 0 116.5 16.5t96.5 59.5q4 -33 27.5 -54.5t58.5 -21.5t59.5 25.5t24.5 60.5v438q0 98 -81 142.5t-208 44.5q-135 0 -210 -50.5t-75 -136.5q0 -33 21.5 -48t52.5 -15q47 0 64.5 20.5t29.5 46t31.5 46t72.5 20.5 q55 0 93.5 -17.5t38.5 -64.5q0 -35 -34 -50.5t-83 -25.5t-108.5 -20t-108.5 -34t-83 -67t-34 -116zM43 436h616v82h-616v-82zM217 797q0 41 17.5 65.5t70.5 32.5t100.5 22.5t86.5 26.5v-121q0 -25 -14.5 -44t-37 -31.5t-51.5 -19.5t-55 -7q-41 0 -79 20.5t-38 55.5z" />
<glyph unicode="&#xab;" horiz-adv-x="585" d="M25 809q0 -45 36 -82l297 -295q33 -33 78 -33q27 0 47.5 11.5t33.5 28t20.5 35t7.5 34.5q0 45 -33 78l-223 223l223 223q33 33 33 76q0 47 -33 78t-78 31t-76 -31l-297 -297q-37 -37 -36 -80zM510 809q0 -45 36 -82l297 -295q33 -33 78 -33q27 0 47.5 11.5t33.5 28 t20.5 35t7.5 34.5q0 45 -33 78l-223 223l223 223q33 33 33 76q0 47 -33 78t-78 31t-76 -31l-297 -297q-37 -37 -36 -80z" />
<glyph unicode="&#xac;" horiz-adv-x="944" d="M41 809q0 -45 31.5 -77t77.5 -32h538v-215q0 -45 32 -76.5t77 -31.5t75.5 31.5t30.5 76.5v324q0 45 -30.5 75.5t-75.5 30.5h-647q-45 0 -77 -30.5t-32 -75.5z" />
<glyph unicode="&#xad;" horiz-adv-x="944" d="M41 809q0 -45 31.5 -77t77.5 -32h647q45 0 75.5 32t30.5 77t-30.5 75.5t-75.5 30.5h-647q-45 0 -77 -30.5t-32 -75.5z" />
<glyph unicode="&#xae;" horiz-adv-x="1241" d="M41 1038q0 -121 46 -226t124 -183t183.5 -124t226.5 -46q119 0 225 46t184 124t124 183.5t46 225.5q0 119 -46 224.5t-124 184.5t-184.5 124t-224.5 45q-121 0 -226.5 -45t-183.5 -124t-124 -184.5t-46 -224.5zM135 1038q0 100 38 188.5t104.5 154t154.5 103.5t189 38 q100 0 188 -38t153.5 -103.5t103.5 -153.5t38 -189q0 -100 -38 -188t-103.5 -154.5t-153.5 -104.5t-188 -38t-188.5 38t-155 104.5t-104.5 154.5t-38 188zM383 786q0 -27 18.5 -44t44.5 -17q27 0 44.5 17.5t17.5 43.5v201h119q63 0 85.5 -22.5t24.5 -38.5l19 -152 q4 -23 20.5 -36t38.5 -13q23 0 45.5 15.5t18.5 41.5l-19 170q-4 33 -29.5 54.5t-54.5 25.5q-10 0 -10 6t8 9q53 16 82 58t29 97q0 72 -50.5 120t-119.5 48h-266q-29 0 -47.5 -17.5t-18.5 -45.5v-521zM508 1083v181h162q37 0 63.5 -27t26.5 -63q0 -37 -26.5 -64t-63.5 -27 h-162z" />
<glyph unicode="&#xaf;" horiz-adv-x="892" d="M41 1509q0 -45 31.5 -76.5t77.5 -31.5h595q45 0 76 31.5t31 76.5t-30.5 76t-76.5 31h-595q-45 0 -77 -31t-32 -76z" />
<glyph unicode="&#xb0;" horiz-adv-x="729" d="M41 1292q0 -68 25.5 -126t69.5 -102t102.5 -69.5t126.5 -25.5t126 25.5t102 69.5t69.5 102.5t25.5 125.5q0 68 -25.5 126.5t-69.5 102.5t-102 69.5t-126 25.5t-126.5 -25.5t-102.5 -69.5t-69.5 -102.5t-25.5 -126.5zM176 1294q0 39 14.5 74t40 60.5t60.5 40t74 14.5 t73.5 -14.5t60 -40t40 -60.5t14.5 -74t-14.5 -73.5t-40 -60t-60.5 -40t-73 -14.5q-39 0 -74 14.5t-60.5 40t-40 60t-14.5 73.5z" />
<glyph unicode="&#xb1;" horiz-adv-x="944" d="M41 324q0 -45 31.5 -77t77.5 -32h647q45 0 75.5 32t30.5 77t-30.5 75.5t-75.5 30.5h-647q-45 0 -77 -30.5t-32 -75.5zM41 971q0 -45 31.5 -77t77.5 -32h215v-215q0 -45 31.5 -76.5t76.5 -31.5t76 31.5t31 76.5v215h217q45 0 75.5 32t30.5 77t-30.5 75.5t-75.5 30.5h-217 v217q0 45 -31 76t-76 31t-76.5 -31t-31.5 -76v-217h-215q-45 0 -77 -30.5t-32 -75.5z" />
<glyph unicode="&#xb2;" horiz-adv-x="786" d="M41 739q0 -29 23.5 -55.5t58.5 -26.5h543q33 0 56 24t23 58q0 33 -23.5 56.5t-55.5 23.5h-334q-39 0 -39 17q0 8 9 18t23.5 22.5t29 22.5t24.5 19q33 25 91 60.5t115.5 84.5t99.5 113.5t42 144.5q0 92 -29.5 154.5t-79 100.5t-113 53.5t-132.5 15.5q-59 0 -115.5 -15.5 t-100.5 -46.5t-72 -78t-28 -110q0 -59 31 -85t68 -26q33 0 58.5 18.5t25.5 51.5q0 76 39.5 102.5t93.5 26.5q68 0 113.5 -37t45.5 -121q0 -53 -36.5 -101t-91 -93.5t-118 -90.5t-117.5 -92t-91 -99t-37 -110z" />
<glyph unicode="&#xb3;" horiz-adv-x="815" d="M41 889q0 -25 17.5 -69t59.5 -86t109.5 -72.5t167.5 -30.5q70 0 137.5 18.5t121 55t87 90t33.5 123.5q0 109 -56 164t-140 79q86 23 126.5 79t40.5 120q0 55 -24.5 104t-69.5 86t-108.5 59.5t-141.5 22.5q-90 0 -151.5 -30.5t-98 -72.5t-53 -84t-16.5 -65 q0 -47 27.5 -70.5t60.5 -23.5q25 0 44 13.5t26 43.5q10 45 47.5 86t113.5 41q72 0 115 -31.5t43 -90.5q0 -39 -19.5 -63.5t-48 -40t-60.5 -21.5t-54 -6q-25 0 -37 -18.5t-12 -41.5t13 -44t36 -21q31 0 66.5 -6.5t65.5 -24t49.5 -48t19.5 -81.5q0 -35 -15.5 -61.5t-42 -44 t-59.5 -26.5t-66 -9q-47 0 -80.5 15t-57.5 37.5t-38 46t-20 42.5q-8 25 -26.5 36t-41.5 11q-33 0 -61.5 -24.5t-28.5 -65.5z" />
<glyph unicode="&#xb4;" horiz-adv-x="454" d="M41 1311q0 -43 25.5 -56.5t44.5 -13.5q28 1 59 21l203 129q23 14 32 35.5t9 46.5q0 37 -13.5 63.5t-35 43.5t-46 26.5t-47.5 9.5q-25 0 -46 -10.5t-36 -32.5l-131 -201q-18 -31 -18 -61z" />
<glyph unicode="&#xb5;" horiz-adv-x="1224" d="M41 -244q0 -41 33 -41q37 0 72.5 24.5t69.5 67.5t64.5 101.5t55.5 126.5q80 -35 168 -35q70 0 125 15.5t98 37t73.5 47t49.5 47.5v-147q0 -59 43 -103t104 -44t104.5 44t43.5 103v1038q0 59 -43 103.5t-105 44.5q-61 0 -104 -44t-43 -104v-577q0 -45 -17.5 -84t-47 -68.5 t-68.5 -46t-84 -16.5q-43 0 -83 16.5t-68.5 46t-46 68.5t-17.5 84v577q0 59 -43 103.5t-105 44.5q-61 0 -105 -44t-44 -104v-676q0 -174 -13.5 -313t-58.5 -254q-8 -18 -8 -39z" />
<glyph unicode="&#xb6;" horiz-adv-x="1644" d="M41 1098q0 -109 41 -203t111.5 -165t165 -111.5t202.5 -40.5h205v-422q0 -66 46 -111t112 -45t110.5 45t44.5 111v1192h158v-1192q0 -66 46 -111t112 -45t110.5 45t44.5 111v1300q0 18 -6 46t-24.5 53.5t-50 43t-80.5 17.5h-828q-109 0 -203 -41t-164.5 -110.5 t-111.5 -165t-41 -201.5z" />
<glyph unicode="&#xb7;" horiz-adv-x="395" d="M41 807q0 -66 45 -111t111 -45t111.5 45t45.5 111t-46 112t-111 46q-66 0 -111 -46t-45 -112z" />
<glyph unicode="&#xb9;" horiz-adv-x="493" d="M41 1378q0 -33 24.5 -61.5t61.5 -28.5q27 0 44 4t30 4q12 0 18 -8t6 -31v-518q0 -39 28 -65.5t66 -26.5q39 0 67 26.5t28 65.5v783q0 47 -32 70.5t-63 23.5q-25 0 -41 -10.5t-29 -25.5t-28 -36t-33 -41q-16 -18 -40.5 -30.5t-48 -24.5t-41 -27.5t-17.5 -42.5z" />
<glyph unicode="&#xba;" horiz-adv-x="792" d="M41 436h711v82h-711v-82zM41 946q0 -82 27.5 -148.5t76 -114.5t113.5 -74.5t139 -26.5t139.5 26.5t112.5 74.5t75 114.5t28 148.5t-28 148.5t-75 113.5t-112.5 74t-139.5 27t-139 -27t-113.5 -74t-76 -113.5t-27.5 -148.5zM203 946q0 47 13 89t38 75t60.5 51.5t82.5 18.5 q45 0 81 -18.5t60.5 -51.5t38 -75t13.5 -89t-13.5 -90t-38 -74.5t-60.5 -51t-81 -19.5q-47 0 -82.5 19.5t-60.5 51t-38 74.5t-13 90z" />
<glyph unicode="&#xbb;" horiz-adv-x="585" d="M41 508q0 -27 11 -47.5t27.5 -33.5t35 -20.5t35.5 -7.5q45 0 77 33l297 295q37 37 37 82q0 43 -37 80l-297 297q-31 31 -75 31q-57 0 -84 -37t-27 -70q0 -45 33 -78l223 -223l-223 -223q-33 -33 -33 -78zM526 508q0 -27 11 -47.5t27.5 -33.5t35 -20.5t35.5 -7.5 q45 0 77 33l297 295q37 37 37 82q0 43 -37 80l-297 297q-31 31 -75 31q-57 0 -84 -37t-27 -70q0 -45 33 -78l223 -223l-223 -223q-33 -33 -33 -78z" />
<glyph unicode="&#xbc;" horiz-adv-x="2072" d="M41 1317q0 -39 30.5 -75t75.5 -36q35 0 56.5 5.5t36.5 5.5q16 0 24 -10.5t8 -39.5v-647q0 -47 34 -82t83 -35t84 35t35 82v979q0 57 -39 87t-80 30q-29 0 -49.5 -12.5t-38.5 -32t-35.5 -44.5t-40.5 -52q-20 -23 -51 -37.5t-60.5 -29.5t-51 -36.5t-21.5 -54.5zM467 109 q0 -45 30.5 -78t77.5 -33q31 0 57.5 16.5t41.5 44.5l669 1430q10 25 11 45q0 35 -13.5 56.5t-32 32.5t-37 15t-26.5 4q-31 0 -57.5 -16t-40.5 -45l-670 -1429q-10 -25 -10 -43zM1036 461q0 -74 53.5 -127t141.5 -53h381v-164q0 -47 33.5 -82t83.5 -35q49 0 83.5 35t34.5 82 v164h82q41 0 72 28.5t31 71.5q0 41 -31 70.5t-72 29.5h-82v555q0 76 -48 126t-118 50q-47 0 -82.5 -27.5t-70.5 -68.5l-430 -508q-62 -67 -62 -147zM1241 481l371 443v-443h-371z" />
<glyph unicode="&#xbd;" horiz-adv-x="2168" d="M41 1317q0 -39 30.5 -75t75.5 -36q35 0 56.5 5.5t36.5 5.5q16 0 24 -10.5t8 -39.5v-647q0 -47 34 -82t83 -35t84 35t35 82v979q0 57 -39 87t-80 30q-29 0 -49.5 -12.5t-38.5 -32t-35.5 -44.5t-40.5 -52q-20 -23 -51 -37.5t-60.5 -29.5t-51 -36.5t-21.5 -54.5zM467 109 q0 -45 30.5 -78t77.5 -33q31 0 57.5 16.5t41.5 44.5l669 1430q10 25 11 45q0 35 -13.5 56.5t-32 32.5t-37 15t-26.5 4q-31 0 -57.5 -16t-40.5 -45l-670 -1429q-10 -25 -10 -43zM1233 102q0 -37 29.5 -69.5t70.5 -32.5h680q41 0 71 29.5t30 72.5q0 41 -30 70t-71 29h-416 q-29 0 -39 5t-10 15t12.5 24.5t29 29t34.5 26.5t31 23q41 31 113.5 75.5t144.5 106t125 141.5t53 180q0 117 -37 196t-98.5 125t-141 65.5t-165.5 19.5q-74 0 -144.5 -19.5t-126 -57.5t-89.5 -96t-34 -138q0 -74 38 -106t83 -32q41 0 73 23.5t32 64.5q0 92 49 126t119 34 q84 0 141 -46t57 -150q0 -68 -45 -128.5t-113.5 -116.5t-148.5 -112.5t-148.5 -116t-113.5 -124t-45 -136.5z" />
<glyph unicode="&#xbe;" horiz-adv-x="2441" d="M41 715q0 -31 22.5 -86.5t73.5 -107.5t136 -91t210 -39q88 0 173 23.5t153 69.5t108.5 113t40.5 155q0 76 -21.5 128t-56 85.5t-76.5 54t-85 35.5q55 18 93 45.5t62.5 61.5t36 70t11.5 71q0 68 -31 130t-86 109t-135 75t-178 28q-113 0 -190 -39t-123 -91.5t-66.5 -105.5 t-20.5 -80q0 -59 35 -89t76 -30q29 0 53.5 16.5t34.5 57.5q6 27 20.5 55.5t39 51t59.5 37t82 14.5q92 0 145 -41t53 -113q0 -49 -25.5 -80.5t-61.5 -50t-75 -26t-67 -7.5q-31 0 -45.5 -22.5t-14.5 -50.5q0 -29 15.5 -55.5t44.5 -26.5q39 0 84 -7.5t82 -29t61.5 -61.5 t24.5 -103q0 -43 -20.5 -76t-52.5 -55.5t-73 -33.5t-84 -11q-57 0 -100 19.5t-71.5 47t-46 57t-25.5 52.5q-10 31 -33 44t-51 13q-41 0 -78 -28.5t-37 -81.5zM836 109q0 -45 30.5 -78t77.5 -33q31 0 57.5 16.5t40.5 44.5l670 1430q10 25 10 45q0 35 -13 56.5t-31.5 32.5 t-37 15t-26.5 4q-31 0 -57.5 -16t-40.5 -45l-670 -1429q-10 -25 -10 -43zM1405 461q0 -74 53 -127t141 -53h381v-164q0 -47 34 -82t83 -35t84 35t35 82v164h82q41 0 71.5 28.5t30.5 71.5q0 41 -30.5 70.5t-71.5 29.5h-82v555q0 76 -48 126t-118 50q-47 0 -83 -27.5 t-71 -68.5l-430 -508q-61 -67 -61 -147zM1610 481l370 443v-443h-370z" />
<glyph unicode="&#xbf;" horiz-adv-x="1212" d="M41 473q0 -125 50 -219t133 -156.5t189.5 -94.5t219.5 -32q125 0 225 42t170 103.5t106.5 133.5t36.5 131q0 33 -14 59.5t-37.5 47t-53.5 31.5t-58 11q-33 0 -60.5 -16t-44.5 -53q-16 -39 -36.5 -78t-52.5 -70.5t-79 -51t-117 -19.5q-57 0 -105 18.5t-84 50t-56.5 73.5 t-20.5 89q0 57 32 103.5t79 86t102.5 77.5t102.5 80t78.5 91.5t31.5 110.5q0 43 -15 71.5t-39 45t-48.5 23.5t-42.5 7q-47 0 -83 -27.5t-56 -74.5q-18 -45 -59.5 -84t-91.5 -78t-103.5 -82t-97.5 -94t-72.5 -113.5t-28.5 -142.5zM494 1460q0 -66 45 -111.5t110 -45.5 q66 0 112 45.5t46 111.5t-46 111t-112 45t-110.5 -45t-44.5 -111z" />
<glyph unicode="&#xc0;" d="M25 158q0 -61 42 -109.5t113 -48.5q49 0 91 28.5t59 77.5l116 392h476l116 -392q16 -49 58.5 -77.5t91.5 -28.5q41 0 69.5 15.5t47 38t27.5 51t9 53.5q0 27 -10 57l-424 1225q-14 41 -34.5 78.5t-48 65.5t-62.5 44.5t-78 16.5q-45 0 -80 -16.5t-61.5 -44.5t-47 -65.5 t-34.5 -78.5l-426 -1225q-10 -31 -10 -57zM382 2019.5q-1 -26.5 9 -49t33 -37.5l201 -131q29 -16 58.5 -19t52 19.5t20.5 53t-21 57.5l-129 203q-14 23 -37.5 32t-49 7.5t-51.5 -11.5t-44 -28.5t-29.5 -44t-12.5 -52zM516 737l168 566l166 -566h-334z" />
<glyph unicode="&#xc1;" d="M25 158q0 -61 42 -109.5t113 -48.5q49 0 91 28.5t59 77.5l116 392h476l116 -392q16 -49 58.5 -77.5t91.5 -28.5q41 0 69.5 15.5t47 38t27.5 51t9 53.5q0 27 -10 57l-424 1225q-14 41 -34.5 78.5t-48 65.5t-62.5 44.5t-78 16.5q-45 0 -80 -16.5t-61.5 -44.5t-47 -65.5 t-34.5 -78.5l-426 -1225q-10 -31 -10 -57zM516 737l168 566l166 -566h-334zM621 1853q0 -43 25.5 -56t43.5 -13q29 0 60 20l202 129q23 14 32 36t9 46q0 37 -13 63.5t-34.5 44t-46.5 27t-47 9.5q-25 0 -46.5 -10.5t-35.5 -32.5l-131 -201q-18 -31 -18 -62z" />
<glyph unicode="&#xc2;" d="M25 158q0 -61 42 -109.5t113 -48.5q49 0 91 28.5t59 77.5l116 392h476l116 -392q16 -49 58.5 -77.5t91.5 -28.5q41 0 69.5 15.5t47 38t27.5 51t9 53.5q0 27 -10 57l-424 1225q-14 41 -34.5 78.5t-48 65.5t-62.5 44.5t-78 16.5q-45 0 -80 -16.5t-61.5 -44.5t-47 -65.5 t-34.5 -78.5l-426 -1225q-10 -31 -10 -57zM449 1858q0 -25 18 -52.5t61 -27.5q35 0 58 22l108 109l109 -109q23 -23 57 -22q43 0 61.5 27.5t18.5 52.5q0 16 -6 32.5t-16 26.5l-162 162q-29 29 -62 28q-33 0 -61 -28l-162 -162q-10 -10 -16 -26.5t-6 -32.5zM516 737l168 566 l166 -566h-334z" />
<glyph unicode="&#xc3;" d="M25 158q0 -61 42 -109.5t113 -48.5q49 0 91 28.5t59 77.5l116 392h476l116 -392q16 -49 58.5 -77.5t91.5 -28.5q41 0 69.5 15.5t47 38t27.5 51t9 53.5q0 27 -10 57l-424 1225q-14 41 -34.5 78.5t-48 65.5t-62.5 44.5t-78 16.5q-45 0 -80 -16.5t-61.5 -44.5t-47 -65.5 t-34.5 -78.5l-426 -1225q-10 -31 -10 -57zM375 1888q0 -43 32.5 -75.5t75.5 -32.5q31 0 48.5 15t30.5 31.5t29.5 27t43.5 -0.5l162 -63q37 -14 75.5 -9t72.5 24.5t55.5 52t21.5 71.5q0 45 -30.5 77t-76.5 32q-31 0 -48 -15.5t-31.5 -32t-31 -26.5t-42.5 0l-162 66 q-37 14 -76 8t-72.5 -25.5t-55 -52.5t-21.5 -72zM516 737l168 566l166 -566h-334z" />
<glyph unicode="&#xc4;" d="M25 158q0 -61 42 -109.5t113 -48.5q49 0 91 28.5t59 77.5l116 392h476l116 -392q16 -49 58.5 -77.5t91.5 -28.5q41 0 69.5 15.5t47 38t27.5 51t9 53.5q0 27 -10 57l-424 1225q-14 41 -34.5 78.5t-48 65.5t-62.5 44.5t-78 16.5q-45 0 -80 -16.5t-61.5 -44.5t-47 -65.5 t-34.5 -78.5l-426 -1225q-10 -31 -10 -57zM424 1901q0 -51 36 -87t85 -36q51 0 87 35.5t36 87.5q0 49 -36 84.5t-87 35.5q-49 0 -85 -35.5t-36 -84.5zM516 737l168 566l166 -566h-334zM721 1901q0 -51 36 -87t85 -36q51 0 87 35.5t36 87.5q0 49 -36 84.5t-87 35.5 q-49 0 -85 -35.5t-36 -84.5z" />
<glyph unicode="&#xc5;" d="M25 158q0 -61 42 -109.5t113 -48.5q49 0 91 28.5t59 77.5l116 392h476l116 -392q16 -49 58.5 -77.5t91.5 -28.5q41 0 69.5 15.5t47 38t27.5 51t9 53.5q0 27 -10 57l-424 1225q-14 41 -34.5 78.5t-48 65.5t-62.5 44.5t-78 16.5q-45 0 -80 -16.5t-61.5 -44.5t-47 -65.5 t-34.5 -78.5l-426 -1225q-10 -31 -10 -57zM516 737l168 566l166 -566h-334zM532 1939q0 -68 47.5 -114.5t114.5 -46.5q68 0 115 47t47 114q0 68 -47 115t-115 47t-115 -47t-47 -115zM600 1939q0 39 27.5 67t66.5 28t66.5 -28t27.5 -67t-27.5 -66.5t-66.5 -27.5t-66.5 28 t-27.5 66z" />
<glyph unicode="&#xc6;" horiz-adv-x="2205" d="M25 147q0 -37 13 -64.5t34.5 -46t48 -27.5t51.5 -9q35 0 66.5 14.5t54.5 42.5l334 441h372v-336q0 -31 10.5 -59.5t30 -51t50 -37t71.5 -14.5h869q55 0 95 39t40 96q0 55 -40 94t-95 39h-717v459h604q55 0 95 40t40 95t-40 95t-95 40h-604v351h717q55 0 95 38.5t40 96.5 q0 55 -40 94t-95 39h-869q-37 0 -65.5 -8.5t-51.5 -38.5l-989 -1327q-31 -43 -30 -95zM797 727l104 139l98 131v-270h-202z" />
<glyph unicode="&#xc7;" horiz-adv-x="1447" d="M41 809q0 -156 42 -300t125 -258t205 -187.5t281 -86.5v-112q0 -41 -25.5 -60.5t-54.5 -19.5h-120q-35 0 -58.5 -23.5t-23.5 -58.5t23.5 -57.5t58.5 -22.5h120q125 0 183.5 68.5t58.5 173.5v112q113 4 211 51.5t170 112t114 135t42 119.5q0 33 -15.5 61.5t-40 49 t-54.5 33t-58 12.5q-31 0 -55.5 -14.5t-39.5 -42.5q-16 -35 -39.5 -78t-63.5 -82t-100.5 -65.5t-150.5 -26.5q-102 0 -181 50t-133 130t-82 181.5t-28 205.5q0 102 28 203.5t82 181.5t133 130t181 50q90 0 150.5 -26.5t100.5 -64.5t63.5 -82t39.5 -77q14 -29 39 -43t54 -14 t58.5 12.5t54 33t40 49t15.5 61.5q0 49 -39 120.5t-116 138t-191.5 115t-268.5 48.5q-184 0 -321.5 -70t-229.5 -185.5t-138 -267t-46 -313.5z" />
<glyph unicode="&#xc8;" horiz-adv-x="1298" d="M94 162q0 -43 14.5 -74t38 -50.5t52 -28.5t57.5 -9h868q55 0 94 39t39 96q0 55 -38.5 94t-94.5 39h-716v459h602q57 0 96 40t39 95t-39 95t-96 40h-602v351h716q55 0 94 38.5t39 96.5q0 55 -38.5 94t-94.5 39h-868q-49 0 -81 -17.5t-50.5 -43t-24.5 -53t-6 -46.5v-1294z M369 2013q0 -25 9 -46t32 -36l202 -129q31 -20 60 -20q18 0 43.5 13t25.5 56q0 31 -18 62l-131 201q-29 43 -82 43q-23 0 -47.5 -9.5t-46 -27t-34.5 -44t-13 -63.5z" />
<glyph unicode="&#xc9;" horiz-adv-x="1298" d="M94 162q0 -43 14.5 -74t38 -50.5t52 -28.5t57.5 -9h868q55 0 94 39t39 96q0 55 -38.5 94t-94.5 39h-716v459h602q57 0 96 40t39 95t-39 95t-96 40h-602v351h716q55 0 94 38.5t39 96.5q0 55 -38.5 94t-94.5 39h-868q-49 0 -81 -17.5t-50.5 -43t-24.5 -53t-6 -46.5v-1294z M575 1851q0 -43 26 -56t44 -13q29 0 60 20l202 129q23 14 32 36t9 46q0 37 -13 63.5t-34.5 44t-46.5 27t-47 9.5q-25 0 -46.5 -10.5t-35.5 -32.5l-131 -201q-18 -31 -19 -62z" />
<glyph unicode="&#xca;" horiz-adv-x="1298" d="M94 162q0 -43 14.5 -74t38 -50.5t52 -28.5t57.5 -9h868q55 0 94 39t39 96q0 55 -38.5 94t-94.5 39h-716v459h602q57 0 96 40t39 95t-39 95t-96 40h-602v351h716q55 0 94 38.5t39 96.5q0 55 -38.5 94t-94.5 39h-868q-49 0 -81 -17.5t-50.5 -43t-24.5 -53t-6 -46.5v-1294z M397 1858q0 -25 18.5 -52.5t61.5 -27.5q35 0 58 22l108 109l109 -109q23 -23 57 -22q43 0 61.5 27.5t18.5 52.5q0 16 -6 32.5t-17 26.5l-161 162q-29 29 -62 28q-33 0 -61 -28l-162 -162q-10 -10 -16.5 -26.5t-6.5 -32.5z" />
<glyph unicode="&#xcb;" horiz-adv-x="1298" d="M94 162q0 -43 14.5 -74t38 -50.5t52 -28.5t57.5 -9h868q55 0 94 39t39 96q0 55 -38.5 94t-94.5 39h-716v459h602q57 0 96 40t39 95t-39 95t-96 40h-602v351h716q55 0 94 38.5t39 96.5q0 55 -38.5 94t-94.5 39h-868q-49 0 -81 -17.5t-50.5 -43t-24.5 -53t-6 -46.5v-1294z M395 1901q0 -51 36 -87t87 -36q49 0 85 35.5t36 87.5q0 49 -36 84.5t-85 35.5q-51 0 -87 -35.5t-36 -84.5zM692 1901q0 -51 36 -87t87 -36q49 0 85 35.5t36 87.5q0 49 -36 84.5t-85 35.5q-51 0 -87 -35.5t-36 -84.5z" />
<glyph unicode="&#xcc;" horiz-adv-x="550" d="M-4 2013q0 -25 9 -46t32 -36l203 -129q31 -20 59 -20q18 0 44 13t26 56q0 31 -19 62l-131 201q-29 43 -82 43q-23 0 -47 -9.5t-45.5 -27t-35 -44t-13.5 -63.5zM143 156q0 -66 45 -111t111 -45t112 45t46 111v1304q0 66 -46 111t-112 45t-111 -45t-45 -111v-1304z" />
<glyph unicode="&#xcd;" horiz-adv-x="524" d="M94 156q0 -66 45 -111t111 -45t112 45t46 111v1304q0 66 -46.5 111t-111.5 45q-66 0 -111 -45t-45 -111v-1304zM178 1851q0 -43 25.5 -56t44.5 -13q28 0 59 20l203 129q23 14 32 36t9 46q0 37 -13.5 63.5t-35 44t-46 27t-46.5 9.5q-25 0 -46.5 -10.5t-35.5 -32.5 l-131 -201q-18 -31 -19 -62z" />
<glyph unicode="&#xce;" horiz-adv-x="512" d="M10 1858q0 -25 18.5 -52.5t61.5 -27.5q35 0 57 22l109 109l109 -109q23 -23 57 -22q43 0 61.5 27.5t18.5 52.5q0 16 -6.5 32.5t-16.5 26.5l-162 162q-29 29 -61 28q-33 0 -61 -28l-162 -162q-10 -10 -16.5 -26.5t-6.5 -32.5zM100 156q0 -66 45 -111t111 -45t112 45 t46 111v1304q0 66 -46 111t-112 45t-111 -45t-45 -111v-1304z" />
<glyph unicode="&#xcf;" horiz-adv-x="442" d="M-49 1901q0 -51 36 -87t87 -36q49 0 85 35.5t36 87.5q0 49 -36 84.5t-85 35.5q-51 0 -87 -35.5t-36 -84.5zM59 156q0 -66 45.5 -111t110.5 -45q66 0 112 45t46 111v1304q0 66 -46 111t-112 45t-111 -45t-45 -111v-1304zM248 1901q0 -51 35.5 -87t87.5 -36q49 0 85 35.5 t36 87.5q0 49 -36 84.5t-85 35.5q-51 0 -87 -35.5t-36 -84.5z" />
<glyph unicode="&#xd0;" horiz-adv-x="1693" d="M41 809q0 -45 31.5 -77t77.5 -32h165v-538q0 -43 14.5 -74t38 -50.5t52.5 -28.5t57 -9h557q150 0 264.5 70.5t193.5 185.5t120 259t41 294q0 147 -41 292.5t-120 259.5t-194.5 184.5t-263.5 70.5h-557q-49 0 -80.5 -17.5t-50 -43t-25 -53t-6.5 -46.5v-541h-165 q-45 0 -77 -30.5t-32 -75.5zM629 270v430h168q45 0 75.5 32t30.5 77t-30.5 75.5t-75.5 30.5h-168v433h289q121 0 201.5 -47.5t129.5 -123t69.5 -172t20.5 -196.5t-20.5 -197.5t-69.5 -173.5t-130 -122t-201 -46h-289z" />
<glyph unicode="&#xd1;" horiz-adv-x="1482" d="M94 147q0 -59 44 -103t104 -44q61 0 105 44t44 103v1006l606 -1016q39 -63 91.5 -100t123.5 -37q37 0 69 13.5t55.5 38t38 56t14.5 68.5v1292q0 61 -44.5 104.5t-105.5 43.5q-59 0 -103 -43t-44 -105v-1005l-607 1016q-39 66 -91 101.5t-124 35.5q-74 0 -125 -51.5 t-51 -122.5v-1295zM399 1886q0 -43 33 -74.5t76 -31.5q27 0 43 12t29.5 25.5l25.5 25.5t31 12q6 0 22 -4l162 -63q14 -6 27.5 -7t28.5 -1q31 0 61.5 11t55 30.5t39 47t14.5 58.5q0 43 -32 75t-75 32q-27 0 -43 -12.5t-29.5 -26t-26 -25.5t-30.5 -12q-8 0 -25 4l-161 63 q-10 4 -25.5 6.5t-28.5 2.5q-33 0 -63.5 -11.5t-55 -31t-39 -46t-14.5 -59.5z" />
<glyph unicode="&#xd2;" horiz-adv-x="1548" d="M41 809q0 -164 46 -314.5t138 -267t229.5 -186.5t319.5 -70q180 0 317.5 70t229.5 186.5t139 267t47 314.5q0 162 -47 312.5t-139 267t-229.5 186.5t-317.5 70q-182 0 -319.5 -70t-229.5 -186.5t-138 -267t-46 -312.5zM336 809q0 104 24.5 205.5t78 181.5t136 129 t199.5 49t199 -49t135 -129t77.5 -181.5t24.5 -205.5t-24.5 -205.5t-77.5 -182.5t-135 -130t-199 -49t-199.5 49t-136 130t-78 182.5t-24.5 205.5zM471 2013q0 -25 9 -46t32 -36l203 -129q31 -20 59 -20q18 0 44 13t26 56q0 31 -19 62l-131 201q-29 43 -82 43 q-23 0 -47 -9.5t-45.5 -27t-35 -44t-13.5 -63.5z" />
<glyph unicode="&#xd3;" horiz-adv-x="1548" d="M41 809q0 -164 46 -314.5t138 -267t229.5 -186.5t319.5 -70q180 0 317.5 70t229.5 186.5t139 267t47 314.5q0 162 -47 312.5t-139 267t-229.5 186.5t-317.5 70q-182 0 -319.5 -70t-229.5 -186.5t-138 -267t-46 -312.5zM336 809q0 104 24.5 205.5t78 181.5t136 129 t199.5 49t199 -49t135 -129t77.5 -181.5t24.5 -205.5t-24.5 -205.5t-77.5 -182.5t-135 -130t-199 -49t-199.5 49t-136 130t-78 182.5t-24.5 205.5zM707 1851q0 -43 25.5 -56t43.5 -13q29 0 60 20l202 129q23 14 32 36t9 46q0 37 -13 63.5t-34.5 44t-46 27t-47.5 9.5 q-25 0 -46.5 -10.5t-35.5 -32.5l-131 -201q-18 -31 -18 -62z" />
<glyph unicode="&#xd4;" horiz-adv-x="1548" d="M41 809q0 -164 46 -314.5t138 -267t229.5 -186.5t319.5 -70q180 0 317.5 70t229.5 186.5t139 267t47 314.5q0 162 -47 312.5t-139 267t-229.5 186.5t-317.5 70q-182 0 -319.5 -70t-229.5 -186.5t-138 -267t-46 -312.5zM336 809q0 104 24.5 205.5t78 181.5t136 129 t199.5 49t199 -49t135 -129t77.5 -181.5t24.5 -205.5t-24.5 -205.5t-77.5 -182.5t-135 -130t-199 -49t-199.5 49t-136 130t-78 182.5t-24.5 205.5zM528 1858q0 -25 18.5 -52.5t61.5 -27.5q35 0 58 22l108 109l109 -109q23 -23 57 -22q43 0 61.5 27.5t18.5 52.5q0 16 -6 32.5 t-17 26.5l-161 162q-29 29 -62 28q-33 0 -61 -28l-162 -162q-10 -10 -16.5 -26.5t-6.5 -32.5z" />
<glyph unicode="&#xd5;" horiz-adv-x="1548" d="M41 809q0 -164 46 -314.5t138 -267t229.5 -186.5t319.5 -70q180 0 317.5 70t229.5 186.5t139 267t47 314.5q0 162 -47 312.5t-139 267t-229.5 186.5t-317.5 70q-182 0 -319.5 -70t-229.5 -186.5t-138 -267t-46 -312.5zM336 809q0 104 24.5 205.5t78 181.5t136 129 t199.5 49t199 -49t135 -129t77.5 -181.5t24.5 -205.5t-24.5 -205.5t-77.5 -182.5t-135 -130t-199 -49t-199.5 49t-136 130t-78 182.5t-24.5 205.5zM459 1888q0 -43 32.5 -75.5t77.5 -32.5q31 0 48.5 15t31 31.5t29.5 27t43 -0.5l162 -63q37 -14 75.5 -9t72.5 24.5t55.5 52 t21.5 71.5q0 45 -32 77t-77 32q-31 0 -48 -15.5t-31.5 -32t-30 -26.5t-41.5 0l-162 66q-37 14 -77 8t-73.5 -25.5t-55 -52.5t-21.5 -72z" />
<glyph unicode="&#xd6;" horiz-adv-x="1548" d="M41 809q0 -164 46 -314.5t138 -267t229.5 -186.5t319.5 -70q180 0 317.5 70t229.5 186.5t139 267t47 314.5q0 162 -47 312.5t-139 267t-229.5 186.5t-317.5 70q-182 0 -319.5 -70t-229.5 -186.5t-138 -267t-46 -312.5zM336 809q0 104 24.5 205.5t78 181.5t136 129 t199.5 49t199 -49t135 -129t77.5 -181.5t24.5 -205.5t-24.5 -205.5t-77.5 -182.5t-135 -130t-199 -49t-199.5 49t-136 130t-78 182.5t-24.5 205.5zM504 1901q0 -51 35.5 -87t85.5 -36q51 0 87 35.5t36 87.5q0 49 -36 84.5t-87 35.5q-49 0 -85 -35.5t-36 -84.5zM801 1901 q0 -51 35.5 -87t85.5 -36q51 0 86.5 35.5t35.5 87.5q0 49 -35.5 84.5t-86.5 35.5q-49 0 -85 -35.5t-36 -84.5z" />
<glyph unicode="&#xd7;" horiz-adv-x="753" d="M41 578q0 -31 11 -51.5t28.5 -32t36 -16.5t30.5 -5q47 0 78 31l152 151l151 -151q31 -31 78 -31q55 0 81 36t26 69q0 47 -31 77l-154 154l154 154q31 31 31 73q0 43 -31 76t-78 33q-43 0 -74 -31l-153 -153l-154 153q-31 31 -73 31q-31 0 -51.5 -11.5t-34 -29 t-18.5 -35.5t-5 -33q0 -43 31 -73l153 -154l-153 -154q-31 -31 -31 -77z" />
<glyph unicode="&#xd8;" horiz-adv-x="1562" d="M41 43q0 -35 22.5 -53.5t38.5 -18.5q20 0 39 14.5t35 30.5l121 140q115 -100 228.5 -141.5t252.5 -41.5q180 0 317.5 70t229.5 186.5t139 267t47 312.5q0 166 -48 309.5t-113 237.5l161 186q10 10 11 31q0 39 -27 55.5t-41 16.5q-37 0 -65 -35l-129 -150 q-57 49 -112.5 85t-114 57.5t-121 32t-134.5 10.5q-182 0 -319 -70t-229.5 -186.5t-138.5 -267t-46 -312.5q0 -168 45 -308.5t117 -242.5l-152 -174q-14 -16 -14 -41zM340 809q0 104 24.5 205.5t78 181.5t136.5 129t199 49q94 0 161 -30.5t134 -96.5l-665 -762 q-29 57 -48.5 141.5t-19.5 182.5zM483 369l666 759q29 -59 47 -141t18 -178q0 -104 -24.5 -206.5t-77.5 -182.5t-135 -129t-199 -49q-98 0 -163.5 30.5t-131.5 96.5z" />
<glyph unicode="&#xd9;" horiz-adv-x="1417" d="M94 485q0 -152 52.5 -251t138.5 -157.5t196.5 -81t227.5 -22.5t227.5 22.5t196.5 81t138 158t52 250.5v975q0 66 -45 111t-111 45t-111.5 -45t-45.5 -111v-975q0 -57 -26 -102t-68 -77t-96 -48t-111 -16t-111.5 16t-96.5 48t-67.5 77t-25.5 102v975q0 66 -46.5 111 t-111.5 45q-66 0 -111 -45t-45 -111v-975zM410 2013q0 -25 9 -46t32 -36l202 -129q31 -20 60 -20q18 0 43.5 13t25.5 56q0 31 -18 62l-131 201q-29 43 -82 43q-23 0 -47.5 -9.5t-46 -27t-34.5 -44t-13 -63.5z" />
<glyph unicode="&#xda;" horiz-adv-x="1417" d="M94 485q0 -152 52.5 -251t138.5 -157.5t196.5 -81t227.5 -22.5t227.5 22.5t196.5 81t138 158t52 250.5v975q0 66 -45 111t-111 45t-111.5 -45t-45.5 -111v-975q0 -57 -26 -102t-68 -77t-96 -48t-111 -16t-111.5 16t-96.5 48t-67.5 77t-25.5 102v975q0 66 -46.5 111 t-111.5 45q-66 0 -111 -45t-45 -111v-975zM635 1851q0 -43 25.5 -56t44.5 -13q28 0 59 20l203 129q23 14 32 36t9 46q0 37 -13.5 63.5t-35 44t-46 27t-47.5 9.5q-25 0 -46 -10.5t-36 -32.5l-131 -201q-18 -31 -18 -62z" />
<glyph unicode="&#xdb;" horiz-adv-x="1417" d="M94 485q0 -152 52.5 -251t138.5 -157.5t196.5 -81t227.5 -22.5t227.5 22.5t196.5 81t138 158t52 250.5v975q0 66 -45 111t-111 45t-111.5 -45t-45.5 -111v-975q0 -57 -26 -102t-68 -77t-96 -48t-111 -16t-111.5 16t-96.5 48t-67.5 77t-25.5 102v975q0 66 -46.5 111 t-111.5 45q-66 0 -111 -45t-45 -111v-975zM463 1858q0 -25 18.5 -52.5t61.5 -27.5q35 0 57 22l109 109l108 -109q23 -23 57 -22q43 0 61.5 27.5t18.5 52.5q0 16 -6 32.5t-16 26.5l-162 162q-29 29 -61 28q-33 0 -62 -28l-162 -162q-10 -10 -16 -26.5t-6 -32.5z" />
<glyph unicode="&#xdc;" horiz-adv-x="1417" d="M94 485q0 -152 52.5 -251t138.5 -157.5t196.5 -81t227.5 -22.5t227.5 22.5t196.5 81t138 158t52 250.5v975q0 66 -45 111t-111 45t-111.5 -45t-45.5 -111v-975q0 -57 -26 -102t-68 -77t-96 -48t-111 -16t-111.5 16t-96.5 48t-67.5 77t-25.5 102v975q0 66 -46.5 111 t-111.5 45q-66 0 -111 -45t-45 -111v-975zM438 1901q0 -51 36 -87t87 -36q49 0 85 35.5t36 87.5q0 49 -36 84.5t-85 35.5q-51 0 -87 -35.5t-36 -84.5zM735 1901q0 -51 36 -87t87 -36q49 0 85 35.5t36 87.5q0 49 -36 84.5t-85 35.5q-51 0 -87 -35.5t-36 -84.5z" />
<glyph unicode="&#xdd;" horiz-adv-x="1261" d="M25 1460q0 -16 3 -31.5t13 -31.5l434 -764v-479q0 -23 10.5 -49.5t30 -50t48 -39t67.5 -15.5q41 0 70.5 14.5t49 37t28.5 49t9 53.5v479l433 764q10 16 13 31.5t3 31.5q0 45 -18.5 75t-43 48.5t-52 25.5t-46.5 7q-43 0 -79.5 -19.5t-55.5 -60.5l-311 -680l-312 680 q-18 41 -55 60.5t-78 19.5q-49 0 -80.5 -17.5t-49 -42t-24.5 -51t-7 -45.5zM563 1851q0 -43 25.5 -56t44.5 -13q28 0 59 20l203 129q23 14 32 36t9 46q0 37 -13.5 63.5t-35 44t-46 27t-46.5 9.5q-25 0 -46.5 -10.5t-35.5 -32.5l-131 -201q-18 -31 -19 -62z" />
<glyph unicode="&#xde;" horiz-adv-x="1331" d="M94 156q0 -66 45 -111t111 -45t112 45t46 111v133h362q106 0 201.5 41t166 111.5t111.5 164.5t41 203q0 106 -41 201.5t-111.5 165t-165.5 110.5t-202 41h-362v133q0 66 -46.5 111t-111.5 45q-66 0 -111 -45t-45 -111v-1304zM408 557v502h335q51 0 97.5 -19.5t81 -53.5 t54 -80t19.5 -97q0 -53 -19.5 -98t-54 -80t-80.5 -54.5t-98 -19.5h-335z" />
<glyph unicode="&#xdf;" horiz-adv-x="1714" d="M41 1065q0 -41 27.5 -67.5t66.5 -26.5h86v-824q0 -59 44 -103t106 -44q59 0 103 44t44 103v1039q0 109 39 148.5t127 39.5h147q88 0 127 -30.5t39 -81.5q0 -39 -25.5 -71t-84.5 -61q-92 -47 -144.5 -125.5t-52.5 -181.5q0 -100 51.5 -159.5t127 -96.5t165.5 -58.5 t166 -43t127 -52t51 -85.5q0 -35 -17.5 -60.5t-45 -43t-62 -27t-69.5 -9.5q-106 0 -172 53.5t-101 139.5q-12 31 -40.5 45t-63.5 14q-51 0 -95 -28.5t-44 -75.5q0 -55 33.5 -119.5t99 -118t162 -89.5t221.5 -36q98 0 185 27t151.5 79t102.5 129t38 179q0 96 -52.5 154.5 t-130 94.5t-167.5 57.5t-168 41t-130 46t-52 75.5q0 59 57 88q78 39 131 83t85 88t46 86t14 77q0 57 -15 117.5t-54 109.5t-106.5 80t-172.5 31h-377q-104 0 -171.5 -31t-106.5 -87t-54.5 -136t-15.5 -176v-27h-86q-39 0 -66.5 -27.5t-27.5 -66.5z" />
<glyph unicode="&#xe0;" horiz-adv-x="1155" d="M41 330q0 -82 35 -143.5t91 -103.5t127 -62.5t140 -20.5q109 0 195 26.5t164 100.5q6 -55 46 -91t95 -36q59 0 100 41t41 100v731q0 82 -35.5 140.5t-100.5 97.5t-153 57.5t-192 18.5q-111 0 -199 -22.5t-149.5 -62.5t-94 -95.5t-32.5 -120.5q0 -68 36 -93.5t85 -25.5 q53 0 81.5 16.5t46 41t30 54t32 54t52 41t91.5 16.5q45 0 86 -8t72 -23.5t48.5 -39t17.5 -54.5q0 -66 -56.5 -95.5t-140.5 -45.5t-181 -32.5t-181 -53.5t-140.5 -108.5t-56.5 -198.5zM332 354q0 115 149 142q123 23 196 45t116 32v-198q0 -41 -24 -73t-61.5 -53.5t-86 -32.5 t-95.5 -11q-55 0 -93 12t-60.5 33.5t-31.5 48.5t-9 55zM352 1536q0 -45 33 -66l162 -104q12 -6 24.5 -11t24.5 -5q14 0 34.5 11t20.5 46q0 20 -14 49l-107 160q-23 35 -65 35q-18 0 -37.5 -7.5t-36 -21.5t-28 -35.5t-11.5 -50.5z" />
<glyph unicode="&#xe1;" horiz-adv-x="1155" d="M41 330q0 -82 35 -143.5t91 -103.5t127 -62.5t140 -20.5q109 0 195 26.5t164 100.5q6 -55 46 -91t95 -36q59 0 100 41t41 100v731q0 82 -35.5 140.5t-100.5 97.5t-153 57.5t-192 18.5q-111 0 -199 -22.5t-149.5 -62.5t-94 -95.5t-32.5 -120.5q0 -68 36 -93.5t85 -25.5 q53 0 81.5 16.5t46 41t30 54t32 54t52 41t91.5 16.5q45 0 86 -8t72 -23.5t48.5 -39t17.5 -54.5q0 -66 -56.5 -95.5t-140.5 -45.5t-181 -32.5t-181 -53.5t-140.5 -108.5t-56.5 -198.5zM332 354q0 115 149 142q123 23 196 45t116 32v-198q0 -41 -24 -73t-61.5 -53.5t-86 -32.5 t-95.5 -11q-55 0 -93 12t-60.5 33.5t-31.5 48.5t-9 55zM541 1407q0 -35 20.5 -46t34.5 -11q12 0 24.5 5t24.5 11l162 104q33 20 33 66q0 29 -11.5 50.5t-28 35.5t-36 21.5t-37.5 7.5q-43 0 -65 -35l-107 -160q-14 -29 -14 -49z" />
<glyph unicode="&#xe2;" horiz-adv-x="1155" d="M41 330q0 -82 35 -143.5t91 -103.5t127 -62.5t140 -20.5q109 0 195 26.5t164 100.5q6 -55 46 -91t95 -36q59 0 100 41t41 100v731q0 82 -35.5 140.5t-100.5 97.5t-153 57.5t-192 18.5q-111 0 -199 -22.5t-149.5 -62.5t-94 -95.5t-32.5 -120.5q0 -68 36 -93.5t85 -25.5 q53 0 81.5 16.5t46 41t30 54t32 54t52 41t91.5 16.5q45 0 86 -8t72 -23.5t48.5 -39t17.5 -54.5q0 -66 -56.5 -95.5t-140.5 -45.5t-181 -32.5t-181 -53.5t-140.5 -108.5t-56.5 -198.5zM332 354q0 115 149 142q123 23 196 45t116 32v-198q0 -41 -24 -73t-61.5 -53.5t-86 -32.5 t-95.5 -11q-55 0 -93 12t-60.5 33.5t-31.5 48.5t-9 55zM393 1409q0 -20 14.5 -41.5t49.5 -21.5q29 0 47 18l86 86l86 -86q18 -18 47 -18q35 0 49 21.5t14 41.5q0 12 -4 25.5t-14 21.5l-129 131q-23 23 -49 23q-27 0 -49 -23l-129 -131q-10 -8 -14.5 -21.5t-4.5 -25.5z" />
<glyph unicode="&#xe3;" horiz-adv-x="1155" d="M41 330q0 -82 35 -143.5t91 -103.5t127 -62.5t140 -20.5q109 0 195 26.5t164 100.5q6 -55 46 -91t95 -36q59 0 100 41t41 100v731q0 82 -35.5 140.5t-100.5 97.5t-153 57.5t-192 18.5q-111 0 -199 -22.5t-149.5 -62.5t-94 -95.5t-32.5 -120.5q0 -68 36 -93.5t85 -25.5 q53 0 81.5 16.5t46 41t30 54t32 54t52 41t91.5 16.5q45 0 86 -8t72 -23.5t48.5 -39t17.5 -54.5q0 -66 -56.5 -95.5t-140.5 -45.5t-181 -32.5t-181 -53.5t-140.5 -108.5t-56.5 -198.5zM272 1456q0 -43 33 -74.5t76 -31.5q27 0 43 12t29.5 25.5t26 25.5t30.5 12q6 0 22 -4 l162 -63q14 -6 27.5 -7t28.5 -1q31 0 61.5 11t55 30.5t39 47t14.5 58.5q0 43 -32 75t-75 32q-27 0 -43 -12.5t-29.5 -26t-26 -25.5t-30.5 -12q-8 0 -25 4l-161 63q-10 4 -25.5 6.5t-28.5 2.5q-33 0 -63.5 -11.5t-55 -31t-39 -46t-14.5 -59.5zM332 354q0 115 149 142 q123 23 196 45t116 32v-198q0 -41 -24 -73t-61.5 -53.5t-86 -32.5t-95.5 -11q-55 0 -93 12t-60.5 33.5t-31.5 48.5t-9 55z" />
<glyph unicode="&#xe4;" horiz-adv-x="1155" d="M41 330q0 -82 35 -143.5t91 -103.5t127 -62.5t140 -20.5q109 0 195 26.5t164 100.5q6 -55 46 -91t95 -36q59 0 100 41t41 100v731q0 82 -35.5 140.5t-100.5 97.5t-153 57.5t-192 18.5q-111 0 -199 -22.5t-149.5 -62.5t-94 -95.5t-32.5 -120.5q0 -68 36 -93.5t85 -25.5 q53 0 81.5 16.5t46 41t30 54t32 54t52 41t91.5 16.5q45 0 86 -8t72 -23.5t48.5 -39t17.5 -54.5q0 -66 -56.5 -95.5t-140.5 -45.5t-181 -32.5t-181 -53.5t-140.5 -108.5t-56.5 -198.5zM332 354q0 115 149 142q123 23 196 45t116 32v-198q0 -41 -24 -73t-61.5 -53.5t-86 -32.5 t-95.5 -11q-55 0 -93 12t-60.5 33.5t-31.5 48.5t-9 55zM334 1466q0 -51 36 -85.5t87 -34.5q49 0 85 34.5t36 85.5t-36 86t-85 35q-51 0 -87 -35t-36 -86zM631 1466q0 -51 35.5 -85.5t87.5 -34.5q49 0 84.5 34.5t35.5 85.5t-35.5 86t-84.5 35q-51 0 -87 -35t-36 -86z" />
<glyph unicode="&#xe5;" horiz-adv-x="1155" d="M41 330q0 -82 35 -143.5t91 -103.5t127 -62.5t140 -20.5q109 0 195 26.5t164 100.5q6 -55 46 -91t95 -36q59 0 100 41t41 100v731q0 82 -35.5 140.5t-100.5 97.5t-153 57.5t-192 18.5q-111 0 -199 -22.5t-149.5 -62.5t-94 -95.5t-32.5 -120.5q0 -68 36 -93.5t85 -25.5 q53 0 81.5 16.5t46 41t30 54t32 54t52 41t91.5 16.5q45 0 86 -8t72 -23.5t48.5 -39t17.5 -54.5q0 -66 -56.5 -95.5t-140.5 -45.5t-181 -32.5t-181 -53.5t-140.5 -108.5t-56.5 -198.5zM332 354q0 115 149 142q123 23 196 45t116 32v-198q0 -41 -24 -73t-61.5 -53.5t-86 -32.5 t-95.5 -11q-55 0 -93 12t-60.5 33.5t-31.5 48.5t-9 55zM434 1509q0 -68 47 -114.5t115 -46.5q25 0 52.5 12t52 34.5t40 51.5t15.5 63q0 68 -47 115t-113 47q-68 0 -115 -47t-47 -115zM500 1509q0 39 27.5 67t68.5 28q39 0 66.5 -28t27.5 -67t-29.5 -66.5t-64.5 -27.5 q-41 0 -68.5 27.5t-27.5 66.5z" />
<glyph unicode="&#xe6;" horiz-adv-x="1916" d="M41 340q0 -86 35 -150.5t91 -106.5t127 -62.5t140 -20.5q66 0 135.5 10t135 31.5t122 56.5t95.5 82q96 -100 201.5 -140t240.5 -40q125 0 213 30.5t142.5 73.5t79 88.5t24.5 71.5q0 27 -12.5 52.5t-31 45t-43 32t-48.5 12.5q-41 0 -70 -35q-33 -41 -61.5 -66.5t-57.5 -39 t-61.5 -18.5t-73.5 -5q-72 0 -127 22.5t-92 55t-55.5 69.5t-18.5 66q0 23 11.5 36t33.5 13h656q51 0 77.5 47t26.5 119q0 76 -30.5 166t-95 167.5t-164 130t-236.5 52.5q-80 0 -175.5 -22.5t-179.5 -94.5q-16 12 -40.5 31.5t-70.5 38t-116 33t-174 14.5q-141 0 -232.5 -31 t-145.5 -77t-75.5 -98t-21.5 -97q0 -66 33.5 -91.5t87.5 -25.5q53 0 82.5 16.5t47 41t29 54t31 54t52 41t91.5 16.5q92 0 156 -29.5t64 -107.5q0 -59 -55.5 -86t-139.5 -43t-181.5 -33.5t-181 -54.5t-139 -105.5t-55.5 -189.5zM332 354q0 115 149 142q61 10 105.5 20 t80 19.5t65.5 19.5t61 20v-200q0 -41 -24 -73t-61.5 -53.5t-86 -32.5t-95.5 -11q-104 0 -149 41t-45 108zM1085 741q0 27 16.5 62t48.5 66.5t82 53t118 21.5t117 -22.5t80.5 -54t47 -66.5t15.5 -62q0 -39 -27 -39h-467q-31 0 -31 41z" />
<glyph unicode="&#xe7;" horiz-adv-x="1142" d="M41 580q0 -137 41 -244t108.5 -182.5t154.5 -119.5t181 -57v-110q0 -45 -27.5 -63.5t-54.5 -18.5h-120q-35 0 -58.5 -22.5t-23.5 -57.5t23.5 -58.5t58.5 -23.5h120q74 0 121 22.5t75 58.5t38 79t10 84v110q98 8 175 52.5t130.5 99.5t81 108.5t27.5 79.5q0 31 -16.5 58.5 t-41 48t-54 33t-56.5 12.5q-29 0 -52.5 -15.5t-33.5 -52.5q-6 -27 -22.5 -58.5t-46 -60t-72.5 -48t-101 -19.5q-127 0 -198.5 88t-71.5 277q0 188 71.5 276t198.5 88q57 0 101.5 -19.5t73 -48t45 -60.5t22.5 -58q8 -37 32.5 -52.5t53.5 -15.5q27 0 56.5 12.5t54 33t41 48 t16.5 58.5q0 18 -25.5 73.5t-84 116t-154 107.5t-232.5 47q-121 0 -224 -43t-179 -123t-119 -191.5t-43 -248.5z" />
<glyph unicode="&#xe8;" horiz-adv-x="1165" d="M41 580q0 -123 38 -232.5t110.5 -192.5t179 -132.5t241.5 -49.5q119 0 205 36t143.5 84t85 96.5t27.5 74.5q0 27 -12 52.5t-30.5 46t-43 33t-49.5 12.5q-39 0 -70 -37q-35 -41 -62.5 -71t-56 -48.5t-61.5 -27.5t-76 -9q-72 0 -126 24.5t-91 61.5t-55.5 77t-18.5 71 q0 25 11.5 40t34.5 15h655q51 0 77.5 47t26.5 119q0 76 -30.5 166t-95 167.5t-164 130t-236.5 52.5q-141 0 -245.5 -49.5t-174 -132t-103.5 -192.5t-34 -232zM334 741q0 27 16.5 62t48 66.5t81.5 53t118 21.5t117 -22.5t80.5 -54t47 -66.5t15.5 -62q0 -39 -27 -39h-466 q-31 0 -31 41zM356 1536q0 -45 33 -66l162 -104q12 -6 24.5 -11t24.5 -5q14 0 34.5 11t20.5 46q0 20 -14 49l-106 160q-23 35 -66 35q-18 0 -37.5 -7.5t-36 -21.5t-28 -35.5t-11.5 -50.5z" />
<glyph unicode="&#xe9;" horiz-adv-x="1165" d="M41 580q0 -123 38 -232.5t110.5 -192.5t179 -132.5t241.5 -49.5q119 0 205 36t143.5 84t85 96.5t27.5 74.5q0 27 -12 52.5t-30.5 46t-43 33t-49.5 12.5q-39 0 -70 -37q-35 -41 -62.5 -71t-56 -48.5t-61.5 -27.5t-76 -9q-72 0 -126 24.5t-91 61.5t-55.5 77t-18.5 71 q0 25 11.5 40t34.5 15h655q51 0 77.5 47t26.5 119q0 76 -30.5 166t-95 167.5t-164 130t-236.5 52.5q-141 0 -245.5 -49.5t-174 -132t-103.5 -192.5t-34 -232zM334 741q0 27 16.5 62t48 66.5t81.5 53t118 21.5t117 -22.5t80.5 -54t47 -66.5t15.5 -62q0 -39 -27 -39h-466 q-31 0 -31 41zM543 1407q0 -35 20.5 -46t34.5 -11q12 0 24.5 5t24.5 11l162 104q33 20 33 66q0 29 -11.5 50.5t-28 35.5t-35.5 21.5t-38 7.5q-43 0 -65 -35l-107 -160q-14 -29 -14 -49z" />
<glyph unicode="&#xea;" horiz-adv-x="1165" d="M41 580q0 -123 38 -232.5t110.5 -192.5t179 -132.5t241.5 -49.5q119 0 205 36t143.5 84t85 96.5t27.5 74.5q0 27 -12 52.5t-30.5 46t-43 33t-49.5 12.5q-39 0 -70 -37q-35 -41 -62.5 -71t-56 -48.5t-61.5 -27.5t-76 -9q-72 0 -126 24.5t-91 61.5t-55.5 77t-18.5 71 q0 25 11.5 40t34.5 15h655q51 0 77.5 47t26.5 119q0 76 -30.5 166t-95 167.5t-164 130t-236.5 52.5q-141 0 -245.5 -49.5t-174 -132t-103.5 -192.5t-34 -232zM334 741q0 27 16.5 62t48 66.5t81.5 53t118 21.5t117 -22.5t80.5 -54t47 -66.5t15.5 -62q0 -39 -27 -39h-466 q-31 0 -31 41zM403 1409q0 -20 14.5 -41.5t49.5 -21.5q29 0 47 18l86 86l86 -86q18 -18 47 -18q35 0 49.5 21.5t14.5 41.5q0 12 -4.5 25.5t-14.5 21.5l-129 131q-23 23 -49 23q-27 0 -49 -23l-129 -131q-10 -8 -14.5 -21.5t-4.5 -25.5z" />
<glyph unicode="&#xeb;" horiz-adv-x="1165" d="M41 580q0 -123 38 -232.5t110.5 -192.5t179 -132.5t241.5 -49.5q119 0 205 36t143.5 84t85 96.5t27.5 74.5q0 27 -12 52.5t-30.5 46t-43 33t-49.5 12.5q-39 0 -70 -37q-35 -41 -62.5 -71t-56 -48.5t-61.5 -27.5t-76 -9q-72 0 -126 24.5t-91 61.5t-55.5 77t-18.5 71 q0 25 11.5 40t34.5 15h655q51 0 77.5 47t26.5 119q0 76 -30.5 166t-95 167.5t-164 130t-236.5 52.5q-141 0 -245.5 -49.5t-174 -132t-103.5 -192.5t-34 -232zM330 1466q0 -51 34.5 -85.5t86.5 -34.5q49 0 84.5 34.5t35.5 85.5t-35.5 86t-84.5 35q-51 0 -86 -35t-35 -86z M334 741q0 27 16.5 62t48 66.5t81.5 53t118 21.5t117 -22.5t80.5 -54t47 -66.5t15.5 -62q0 -39 -27 -39h-466q-31 0 -31 41zM627 1466q0 -51 34.5 -85.5t86.5 -34.5q49 0 84.5 34.5t35.5 85.5t-35.5 86t-84.5 35q-51 0 -86 -35t-35 -86z" />
<glyph unicode="&#xec;" horiz-adv-x="471" d="M4 1536q0 -45 33 -66l162 -104q12 -6 24.5 -11t24.5 -5q14 0 34.5 11t20.5 46q0 20 -14 49l-107 160q-23 35 -65 35q-18 0 -38 -7.5t-36 -21.5t-27.5 -35.5t-11.5 -50.5zM94 147q0 -59 44 -103t104 -44q61 0 105 43t44 104v863q0 61 -43 105t-104 44t-105.5 -44 t-44.5 -105v-863z" />
<glyph unicode="&#xed;" horiz-adv-x="471" d="M80 147q0 -59 44 -103t103 -44q61 0 105.5 43t44.5 104v863q0 61 -43 105t-105 44q-61 0 -105 -44t-44 -105v-863zM168 1407q0 -35 20.5 -46t34.5 -11q12 0 24.5 5t24.5 11l162 104q33 20 33 66q0 29 -11.5 50.5t-27.5 35.5t-35.5 21.5t-38.5 7.5q-43 0 -65 -35 l-107 -160q-14 -29 -14 -49z" />
<glyph unicode="&#xee;" horiz-adv-x="364" d="M-16 1409q0 -20 14 -41.5t49 -21.5q29 0 47 18l86 86l86 -86q18 -18 47 -18q35 0 49.5 21.5t14.5 41.5q0 12 -4 25.5t-15 21.5l-129 131q-23 23 -49 23q-27 0 -49 -23l-129 -131q-10 -8 -14 -21.5t-4 -25.5zM35 147q0 -59 44 -103t103 -44q61 0 105.5 43t44.5 104v863 q0 61 -43 105t-105 44q-61 0 -105 -44t-44 -105v-863z" />
<glyph unicode="&#xef;" horiz-adv-x="387" d="M-76 1466q0 -51 35 -85.5t86 -34.5q49 0 85 34.5t36 85.5t-36 86t-85 35q-51 0 -86 -35t-35 -86zM41 147q0 -59 44 -103t103 -44q61 0 105.5 43t44.5 104v863q0 61 -43 105t-105 44q-61 0 -105 -44t-44 -105v-863zM221 1466q0 -51 35 -85.5t86 -34.5q49 0 85 34.5 t36 85.5t-36 86t-85 35q-51 0 -86 -35t-35 -86z" />
<glyph unicode="&#xf0;" horiz-adv-x="1267" d="M41 580q0 -135 46 -247t126 -192t188.5 -124t231.5 -44q125 0 233.5 44t188.5 124t126 191.5t46 247.5q0 199 -39 351t-103.5 265t-148.5 188.5t-172 122.5l123 123h-127l-82 -82q-57 25 -125 41.5t-133.5 25.5t-122.5 12t-94 3q-31 0 -52.5 -26.5t-21.5 -61.5 q0 -37 25.5 -62.5t62.5 -25.5q18 0 54 -2t80 -6t92.5 -14.5t95.5 -24.5l-115 -115h125l76 76q57 -29 121.5 -83t107.5 -138q-106 39 -221 39q-123 0 -231.5 -44t-188.5 -124t-126 -191.5t-46 -246.5zM309 580q0 78 22.5 148.5t64.5 124.5t101.5 86t135.5 32t136 -32t101 -86 t63.5 -124.5t22.5 -148.5t-22.5 -150t-63.5 -125t-101 -85t-136 -32t-135.5 32t-101.5 85t-64.5 125t-22.5 150z" />
<glyph unicode="&#xf1;" horiz-adv-x="1183" d="M80 147q0 -59 44 -103t105 -44t104.5 44t43.5 103v578q0 45 17.5 84t46 67.5t68.5 46t83 17.5q45 0 84 -17.5t67.5 -46t46 -67.5t17.5 -84v-578q0 -59 44 -103t105 -44t104.5 44t43.5 103v676q0 82 -30 148.5t-82 114t-121.5 74t-147.5 26.5q-70 0 -125 -15.5t-98 -37 t-74 -48t-49 -47.5q0 59 -43 103.5t-105 44.5q-61 0 -105 -44t-44 -104v-891zM281 1456q0 -43 32.5 -74.5t75.5 -31.5q27 0 43.5 12t29.5 25.5t25.5 25.5t30.5 12q6 0 23 -4l161 -63q14 -6 27.5 -7t28.5 -1q31 0 61.5 11t55 30.5t39 47t14.5 58.5q0 43 -32 75t-75 32 q-27 0 -43 -12.5t-29.5 -26l-25.5 -25.5t-31 -12q-8 0 -24 4l-162 63q-10 4 -25.5 6.5t-27.5 2.5q-33 0 -64 -11.5t-55.5 -31t-38.5 -46t-14 -59.5z" />
<glyph unicode="&#xf2;" horiz-adv-x="1267" d="M41 580q0 -135 46 -247t126 -192t188.5 -124t231.5 -44q125 0 233.5 44t188.5 124t126 191.5t46 247.5q0 135 -46 246.5t-126 191.5t-188.5 124t-233.5 44q-123 0 -231.5 -44t-188.5 -124t-126 -191.5t-46 -246.5zM309 580q0 78 22.5 148.5t64.5 124.5t101.5 86t135.5 32 t136 -32t101 -86t63.5 -124.5t22.5 -148.5t-22.5 -150t-63.5 -125t-101 -85t-136 -32t-135.5 32t-101.5 85t-64.5 125t-22.5 150zM389 1536q0 -45 33 -66l162 -104q12 -6 24.5 -11t24.5 -5q14 0 34.5 11t20.5 46q0 20 -14 49l-107 160q-23 35 -65 35q-18 0 -38 -7.5 t-36 -21.5t-27.5 -35.5t-11.5 -50.5z" />
<glyph unicode="&#xf3;" horiz-adv-x="1267" d="M41 580q0 -135 46 -247t126 -192t188.5 -124t231.5 -44q125 0 233.5 44t188.5 124t126 191.5t46 247.5q0 135 -46 246.5t-126 191.5t-188.5 124t-233.5 44q-123 0 -231.5 -44t-188.5 -124t-126 -191.5t-46 -246.5zM309 580q0 78 22.5 148.5t64.5 124.5t101.5 86t135.5 32 t136 -32t101 -86t63.5 -124.5t22.5 -148.5t-22.5 -150t-63.5 -125t-101 -85t-136 -32t-135.5 32t-101.5 85t-64.5 125t-22.5 150zM573 1407q0 -35 20.5 -46t35.5 -11q12 0 24.5 5t24.5 11l162 104q33 20 32 66q0 29 -11 50.5t-27.5 35.5t-36 21.5t-37.5 7.5q-43 0 -66 -35 l-106 -160q-14 -29 -15 -49z" />
<glyph unicode="&#xf4;" horiz-adv-x="1267" d="M41 580q0 -135 46 -247t126 -192t188.5 -124t231.5 -44q125 0 233.5 44t188.5 124t126 191.5t46 247.5q0 135 -46 246.5t-126 191.5t-188.5 124t-233.5 44q-123 0 -231.5 -44t-188.5 -124t-126 -191.5t-46 -246.5zM309 580q0 78 22.5 148.5t64.5 124.5t101.5 86t135.5 32 t136 -32t101 -86t63.5 -124.5t22.5 -148.5t-22.5 -150t-63.5 -125t-101 -85t-136 -32t-135.5 32t-101.5 85t-64.5 125t-22.5 150zM434 1409q0 -20 14.5 -41.5t49.5 -21.5q29 0 47 18l86 86l86 -86q18 -18 47 -18q35 0 49 21.5t14 41.5q0 12 -4 25.5t-14 21.5l-129 131 q-23 23 -49 23q-27 0 -49 -23l-129 -131q-10 -8 -14.5 -21.5t-4.5 -25.5z" />
<glyph unicode="&#xf5;" horiz-adv-x="1267" d="M41 580q0 -135 46 -247t126 -192t188.5 -124t231.5 -44q125 0 233.5 44t188.5 124t126 191.5t46 247.5q0 135 -46 246.5t-126 191.5t-188.5 124t-233.5 44q-123 0 -231.5 -44t-188.5 -124t-126 -191.5t-46 -246.5zM309 580q0 78 22.5 148.5t64.5 124.5t101.5 86t135.5 32 t136 -32t101 -86t63.5 -124.5t22.5 -148.5t-22.5 -150t-63.5 -125t-101 -85t-136 -32t-135.5 32t-101.5 85t-64.5 125t-22.5 150zM317 1456q0 -43 33 -74.5t76 -31.5q27 0 43 12t29.5 25.5t26 25.5t30.5 12q6 0 23 -4l161 -63q14 -6 27.5 -7t28.5 -1q31 0 61.5 11t55 30.5 t39 47t14.5 58.5q0 43 -32 75t-75 32q-27 0 -43 -12.5t-29.5 -26l-25.5 -25.5t-31 -12q-8 0 -24 4l-162 63q-10 4 -25.5 6.5t-28.5 2.5q-33 0 -63.5 -11.5t-55 -31t-39 -46t-14.5 -59.5z" />
<glyph unicode="&#xf6;" horiz-adv-x="1267" d="M41 580q0 -135 46 -247t126 -192t188.5 -124t231.5 -44q125 0 233.5 44t188.5 124t126 191.5t46 247.5q0 135 -46 246.5t-126 191.5t-188.5 124t-233.5 44q-123 0 -231.5 -44t-188.5 -124t-126 -191.5t-46 -246.5zM309 580q0 78 22.5 148.5t64.5 124.5t101.5 86t135.5 32 t136 -32t101 -86t63.5 -124.5t22.5 -148.5t-22.5 -150t-63.5 -125t-101 -85t-136 -32t-135.5 32t-101.5 85t-64.5 125t-22.5 150zM367 1466q0 -51 35.5 -85.5t84.5 -34.5q51 0 86 34.5t35 85.5t-34.5 86t-86.5 35q-49 0 -84.5 -35t-35.5 -86zM664 1466q0 -51 35.5 -85.5 t84.5 -34.5q51 0 86 34.5t35 85.5t-34.5 86t-86.5 35q-49 0 -84.5 -35t-35.5 -86z" />
<glyph unicode="&#xf8;" horiz-adv-x="1286" d="M41 43q0 -27 18.5 -48.5t44.5 -21.5q20 0 39 13.5t35 29.5l86 86q66 -53 161 -91t214 -38q125 0 233.5 44t188.5 124t126 191.5t46 247.5q0 104 -26.5 195t-96.5 186l123 122q12 12 12 29q0 18 -16.5 45t-52.5 27q-18 0 -35 -9.5t-31 -23.5l-92 -96q-92 74 -185.5 102.5 t-193.5 28.5q-123 0 -231.5 -44t-188.5 -124t-126 -191.5t-46 -246.5q0 -90 25.5 -188.5t97.5 -192.5l-113 -115q-16 -16 -16 -41zM315 580q0 78 22.5 148.5t64.5 124.5t101.5 86t135.5 32q68 0 115 -20.5t94 -65.5l-494 -500q-25 53 -32 100t-7 95zM432 272l492 500 q25 -53 32 -98t7 -94q0 -78 -22.5 -150t-63.5 -125t-101.5 -85t-136.5 -32q-115 0 -207 84z" />
<glyph unicode="&#xf9;" horiz-adv-x="1183" d="M80 362q0 -82 30.5 -148.5t83 -114.5t122 -73.5t147.5 -25.5q70 0 125 15.5t98 37t74 47t49 47.5q0 -59 43 -103t104 -44t104.5 44t43.5 103v891q0 59 -43 103.5t-105 44.5q-61 0 -105 -44t-44 -104v-577q0 -45 -17.5 -84t-46 -68.5t-67.5 -46t-84 -16.5q-43 0 -83 16.5 t-68.5 46t-46 68.5t-17.5 84v577q0 59 -43 103.5t-105 44.5q-61 0 -105 -44t-44 -104v-676zM346 1536q0 -45 33 -66l162 -104q12 -6 24.5 -11t24.5 -5q14 0 34.5 11t20.5 46q0 20 -14 49l-107 160q-23 35 -65 35q-18 0 -38 -7.5t-36 -21.5t-27.5 -35.5t-11.5 -50.5z" />
<glyph unicode="&#xfa;" horiz-adv-x="1183" d="M80 362q0 -82 30.5 -148.5t83 -114.5t122 -73.5t147.5 -25.5q70 0 125 15.5t98 37t74 47t49 47.5q0 -59 43 -103t104 -44t104.5 44t43.5 103v891q0 59 -43 103.5t-105 44.5q-61 0 -105 -44t-44 -104v-577q0 -45 -17.5 -84t-46 -68.5t-67.5 -46t-84 -16.5q-43 0 -83 16.5 t-68.5 46t-46 68.5t-17.5 84v577q0 59 -43 103.5t-105 44.5q-61 0 -105 -44t-44 -104v-676zM496 1407q0 -35 20.5 -46t34.5 -11q12 0 24.5 5t24.5 11l162 104q33 20 33 66q0 29 -11.5 50.5t-28 35.5t-36 21.5t-37.5 7.5q-43 0 -66 -35l-106 -160q-14 -29 -14 -49z" />
<glyph unicode="&#xfb;" horiz-adv-x="1183" d="M80 362q0 -82 30.5 -148.5t83 -114.5t122 -73.5t147.5 -25.5q70 0 125 15.5t98 37t74 47t49 47.5q0 -59 43 -103t104 -44t104.5 44t43.5 103v891q0 59 -43 103.5t-105 44.5q-61 0 -105 -44t-44 -104v-577q0 -45 -17.5 -84t-46 -68.5t-67.5 -46t-84 -16.5q-43 0 -83 16.5 t-68.5 46t-46 68.5t-17.5 84v577q0 59 -43 103.5t-105 44.5q-61 0 -105 -44t-44 -104v-676zM395 1409q0 -20 14.5 -41.5t49.5 -21.5q29 0 47 18l86 86l86 -86q18 -18 47 -18q35 0 49 21.5t14 41.5q0 12 -4 25.5t-14 21.5l-129 131q-23 23 -49 23q-27 0 -49 -23l-129 -131 q-10 -8 -14.5 -21.5t-4.5 -25.5z" />
<glyph unicode="&#xfc;" horiz-adv-x="1183" d="M80 362q0 -82 30.5 -148.5t83 -114.5t122 -73.5t147.5 -25.5q70 0 125 15.5t98 37t74 47t49 47.5q0 -59 43 -103t104 -44t104.5 44t43.5 103v891q0 59 -43 103.5t-105 44.5q-61 0 -105 -44t-44 -104v-577q0 -45 -17.5 -84t-46 -68.5t-67.5 -46t-84 -16.5q-43 0 -83 16.5 t-68.5 46t-46 68.5t-17.5 84v577q0 59 -43 103.5t-105 44.5q-61 0 -105 -44t-44 -104v-676zM324 1466q0 -51 34.5 -85.5t85.5 -34.5t86 34.5t35 85.5t-34.5 86t-86.5 35q-51 0 -85.5 -35t-34.5 -86zM621 1466q0 -51 34.5 -85.5t85.5 -34.5t86 34.5t35 85.5t-34.5 86 t-86.5 35q-51 0 -85.5 -35t-34.5 -86z" />
<glyph unicode="&#xfd;" horiz-adv-x="1091" d="M27 1030q0 -35 12 -65l342 -869q18 -47 26.5 -81.5t8.5 -63.5q0 -47 -21.5 -72.5t-58.5 -38t-85 -14.5t-101 -2q-55 0 -81 -28.5t-26 -69.5q0 -29 11.5 -56.5t33 -50t51 -37t68.5 -14.5h106q49 0 103.5 7t103.5 33.5t91 76t71 135.5l377 1175q6 18 6 39q0 70 -49 111 t-111 41q-47 0 -87 -24.5t-52 -71.5l-197 -777l-252 779q-14 45 -53 68.5t-84 23.5q-43 0 -72.5 -15.5t-47 -38t-25.5 -49t-8 -51.5zM514 1407q0 -35 20.5 -46t34.5 -11q12 0 24.5 5t24.5 11l162 104q33 20 33 66q0 29 -11 50.5t-27.5 35.5t-36 21.5t-38.5 7.5 q-43 0 -65 -35l-107 -160q-14 -29 -14 -49z" />
<glyph unicode="&#xfe;" horiz-adv-x="1222" d="M94 -283q0 -61 44 -105t104 -44q61 0 105 44t44 105v402q0 27 10 26q12 0 37 -22.5t65 -50t97 -50t133 -22.5q100 0 183 43t142.5 122t91.5 187.5t32 239.5t-32 240.5t-91.5 188.5t-142 122t-183.5 43q-80 0 -136 -13.5t-96 -35t-66 -48t-44 -51.5v430q0 59 -44 103.5 t-105 44.5q-59 0 -103.5 -44t-44.5 -104v-1751zM365 592q0 164 71.5 258t200.5 94q131 0 202.5 -94t71.5 -258q0 -162 -71.5 -256t-202.5 -94q-129 0 -200.5 94t-71.5 256z" />
<glyph unicode="&#xff;" horiz-adv-x="1091" d="M27 1030q0 -35 12 -65l342 -869q18 -47 26.5 -81.5t8.5 -63.5q0 -47 -21.5 -72.5t-58.5 -38t-85 -14.5t-101 -2q-55 0 -81 -28.5t-26 -69.5q0 -29 11.5 -56.5t33 -50t51 -37t68.5 -14.5h106q49 0 103.5 7t103.5 33.5t91 76t71 135.5l377 1175q6 18 6 39q0 70 -49 111 t-111 41q-47 0 -87 -24.5t-52 -71.5l-197 -777l-252 779q-14 45 -53 68.5t-84 23.5q-43 0 -72.5 -15.5t-47 -38t-25.5 -49t-8 -51.5zM270 1466q0 -51 35 -85.5t86 -34.5q49 0 85 34.5t36 85.5t-36 86t-85 35q-51 0 -86 -35t-35 -86zM567 1466q0 -51 35 -85.5t86 -34.5 q49 0 85 34.5t36 85.5t-36 86t-85 35q-51 0 -86 -35t-35 -86z" />
<glyph unicode="&#x152;" horiz-adv-x="2414" d="M41 809q0 -164 46 -314.5t138 -266t229.5 -185.5t319.5 -70q117 0 223.5 33t216.5 115q14 -72 63.5 -96.5t94.5 -24.5h866q57 0 96.5 39t39.5 96q0 55 -39 94t-97 39h-716v459h604q55 0 95 40t40 95t-40 95t-95 40h-604v351h716q57 0 96.5 38.5t39.5 96.5q0 55 -39 94 t-97 39h-866q-43 0 -72.5 -14.5t-48 -35t-27 -40t-10.5 -29.5q-111 82 -215 115t-225 33q-182 0 -319.5 -70t-229.5 -186.5t-138 -267t-46 -312.5zM336 809q0 104 24.5 205.5t78 181.5t136 129t199.5 49t199 -49t135 -129t77.5 -181.5t24.5 -205.5t-24.5 -205.5 t-77.5 -182.5t-135 -130t-199 -49t-199.5 49t-136 130t-78 182.5t-24.5 205.5z" />
<glyph unicode="&#x153;" horiz-adv-x="2082" d="M41 580q0 -135 46 -247t126 -192t188.5 -124t231.5 -44q125 0 241.5 47t212.5 158q90 -111 201 -158t240 -47q113 0 200 36t144 83t87 96.5t30 77.5q0 27 -12.5 52.5t-31 45t-43 31t-49.5 11.5q-43 0 -71 -35q-33 -41 -60.5 -71t-56.5 -48.5t-61.5 -27.5t-75.5 -9 q-72 0 -126 24.5t-91 61.5t-55.5 77t-18.5 71q0 25 11.5 40t33.5 15h655q51 0 78 47t27 119q0 76 -31 166t-95.5 167.5t-164.5 130t-238 52.5q-119 0 -232.5 -43t-197.5 -156q-6 6 -35.5 39t-86 67.5t-138.5 63.5t-190 29q-123 0 -231.5 -44t-188.5 -124t-126 -191.5 t-46 -246.5zM311 580q0 78 21.5 148.5t63.5 124.5t101.5 86t135.5 32t136 -32t101 -86t63.5 -124.5t22.5 -148.5t-22.5 -150t-63.5 -125t-101 -85t-136 -32t-135.5 32t-101.5 85t-63.5 125t-21.5 150zM1249 743q0 27 16.5 62t48.5 65.5t81.5 52t117.5 21.5q70 0 119 -22.5 t81 -54t47.5 -66.5t15.5 -62q0 -39 -27 -39h-467q-33 0 -33 43z" />
<glyph unicode="&#x178;" horiz-adv-x="1261" d="M25 1460q0 -16 3 -31.5t13 -31.5l434 -764v-479q0 -23 10.5 -49.5t30 -50t48 -39t67.5 -15.5q41 0 70.5 14.5t49 37t28.5 49t9 53.5v479l433 764q10 16 13 31.5t3 31.5q0 45 -18.5 75t-43 48.5t-52 25.5t-46.5 7q-43 0 -79.5 -19.5t-55.5 -60.5l-311 -680l-312 680 q-18 41 -55 60.5t-78 19.5q-49 0 -80.5 -17.5t-49 -42t-24.5 -51t-7 -45.5zM360 1901q0 -51 36 -87t87 -36q49 0 85 35.5t36 87.5q0 49 -36 84.5t-85 35.5q-51 0 -87 -35.5t-36 -84.5zM657 1901q0 -51 36 -87t87 -36q49 0 85 35.5t36 87.5q0 49 -36 84.5t-85 35.5 q-51 0 -87 -35.5t-36 -84.5z" />
<glyph unicode="&#x2c6;" horiz-adv-x="573" d="M41 1395q0 -25 18.5 -52.5t61.5 -27.5q35 0 57 22l109 109l108 -109q23 -23 58 -22q43 0 61 27.5t18 52.5q0 16 -6 32.5t-16 26.5l-162 162q-29 29 -61 29q-33 0 -62 -29l-162 -162q-10 -10 -16 -26.5t-6 -32.5z" />
<glyph unicode="&#x2dc;" horiz-adv-x="892" d="M41 1456q0 -55 42 -95t95 -40q33 0 53.5 15.5t37 32.5t31.5 32.5t38 15.5q12 0 29 -6l202 -80q29 -10 70 -10q39 0 77 14.5t68.5 39t49 58t18.5 72.5q0 55 -40 95t-95 40q-33 0 -53.5 -15t-37 -32.5t-31.5 -33t-38 -15.5q-16 0 -31 6l-202 80q-31 10 -68 10 q-41 0 -79 -14t-68.5 -38.5t-49 -58.5t-18.5 -73z" />
<glyph unicode="&#x2000;" horiz-adv-x="1079" />
<glyph unicode="&#x2001;" horiz-adv-x="2159" />
<glyph unicode="&#x2002;" horiz-adv-x="1079" />
<glyph unicode="&#x2003;" horiz-adv-x="2159" />
<glyph unicode="&#x2004;" horiz-adv-x="719" />
<glyph unicode="&#x2005;" horiz-adv-x="539" />
<glyph unicode="&#x2006;" horiz-adv-x="359" />
<glyph unicode="&#x2007;" horiz-adv-x="359" />
<glyph unicode="&#x2008;" horiz-adv-x="269" />
<glyph unicode="&#x2009;" horiz-adv-x="431" />
<glyph unicode="&#x200a;" horiz-adv-x="119" />
<glyph unicode="&#x2010;" horiz-adv-x="944" d="M41 809q0 -45 31.5 -77t77.5 -32h647q45 0 75.5 32t30.5 77t-30.5 75.5t-75.5 30.5h-647q-45 0 -77 -30.5t-32 -75.5z" />
<glyph unicode="&#x2011;" horiz-adv-x="944" d="M41 809q0 -45 31.5 -77t77.5 -32h647q45 0 75.5 32t30.5 77t-30.5 75.5t-75.5 30.5h-647q-45 0 -77 -30.5t-32 -75.5z" />
<glyph unicode="&#x2012;" horiz-adv-x="944" d="M41 809q0 -45 31.5 -77t77.5 -32h647q45 0 75.5 32t30.5 77t-30.5 75.5t-75.5 30.5h-647q-45 0 -77 -30.5t-32 -75.5z" />
<glyph unicode="&#x2013;" horiz-adv-x="1105" d="M41 809q0 -45 31.5 -77t77.5 -32h808q43 0 75 32t32 77t-32 75.5t-75 30.5h-808q-45 0 -77 -30.5t-32 -75.5z" />
<glyph unicode="&#x2014;" horiz-adv-x="2129" d="M41 809q0 -45 31.5 -77t77.5 -32h1832q43 0 75 32t32 77t-32 75.5t-75 30.5h-1832q-45 0 -77 -30.5t-32 -75.5z" />
<glyph unicode="&#x2018;" horiz-adv-x="397" d="M41 1632q0 -80 43 -138t117 -58q66 0 110.5 45.5t44.5 111.5t-45 111t-110 45l61 63q16 16 17 39q0 29 -26 53.5t-58 24.5q-29 0 -48 -18q-25 -25 -44 -57.5t-33.5 -70.5t-21.5 -77t-7 -74z" />
<glyph unicode="&#x2019;" horiz-adv-x="397" d="M41 1772q0 -66 45 -111t111 -45l-62 -64q-16 -16 -16 -39q0 -29 25.5 -53t58.5 -24q29 0 47 18q25 25 44 57.5t33.5 70.5t21.5 77t7 74q0 80 -43 138t-116 58q-66 0 -111 -45.5t-45 -111.5z" />
<glyph unicode="&#x201a;" horiz-adv-x="397" d="M41 156q0 -66 45 -111t111 -45l-62 -63q-16 -16 -16 -39q0 -29 25.5 -53.5t58.5 -24.5q29 0 47 18q25 25 44 57.5t33.5 70.5t21.5 77t7 74q0 80 -43 138t-116 58q-66 0 -111 -45.5t-45 -111.5z" />
<glyph unicode="&#x201c;" horiz-adv-x="765" d="M41 1632q0 -80 43 -138t117 -58q66 0 110.5 45.5t44.5 111.5t-45 111t-110 45l61 63q16 16 17 39q0 29 -26 53.5t-58 24.5q-29 0 -48 -18q-25 -25 -44 -57.5t-33.5 -70.5t-21.5 -77t-7 -74zM410 1632q0 -80 43 -138t116 -58q66 0 111 45.5t45 111.5t-45 111t-111 45 l62 63q16 16 16 39q0 29 -25.5 53.5t-58.5 24.5q-29 0 -47 -18q-25 -25 -44 -57.5t-33.5 -70.5t-21.5 -77t-7 -74z" />
<glyph unicode="&#x201d;" horiz-adv-x="765" d="M41 1772q0 -66 45 -111t111 -45l-62 -64q-16 -16 -16 -39q0 -29 25.5 -53t58.5 -24q29 0 47 18q25 25 44 57.5t33.5 70.5t21.5 77t7 74q0 80 -43 138t-116 58q-66 0 -111 -45.5t-45 -111.5zM410 1772q0 -66 45 -111t110 -45l-61 -64q-16 -16 -17 -39q0 -29 26 -53t58 -24 q29 0 47 18q25 25 44.5 57.5t34 70.5t21.5 77t7 74q0 80 -43 138t-117 58q-66 0 -110.5 -45.5t-44.5 -111.5z" />
<glyph unicode="&#x201e;" horiz-adv-x="397" d="M41 156q0 -66 45 -111t111 -45l-62 -63q-16 -16 -16 -39q0 -29 25.5 -53.5t58.5 -24.5q29 0 47 18q25 25 44 57.5t33.5 70.5t21.5 77t7 74q0 80 -43 138t-116 58q-66 0 -111 -45.5t-45 -111.5zM410 156q0 -66 45 -111t111 -45l-62 -63q-16 -16 -16 -39q0 -29 25.5 -53.5 t58.5 -24.5q29 0 47 18q25 25 44 57.5t33.5 70.5t21.5 77t7 74q0 80 -43 138t-116 58q-66 0 -111 -45.5t-45 -111.5z" />
<glyph unicode="&#x2022;" horiz-adv-x="708" d="M41 809q0 -66 24.5 -122t67.5 -99t99.5 -67.5t121.5 -24.5q63 0 120.5 24.5t100.5 67.5t68 99t25 122q0 63 -25 120.5t-68 99.5t-100 66.5t-121 24.5q-66 0 -122 -24.5t-99 -66.5t-67.5 -99.5t-24.5 -120.5z" />
<glyph unicode="&#x2026;" horiz-adv-x="1128" d="M41 156q0 -66 45 -111t111 -45t111.5 45t45.5 111t-46 111.5t-111 45.5q-66 0 -111 -45.5t-45 -111.5zM408 156q0 -66 45 -111t110 -45q66 0 112 45t46 111t-46 111.5t-112 45.5t-110.5 -45.5t-44.5 -111.5zM774 156q0 -66 45 -111t111 -45t111.5 45t45.5 111t-46 111.5 t-111 45.5q-66 0 -111 -45.5t-45 -111.5z" />
<glyph unicode="&#x202f;" horiz-adv-x="431" />
<glyph unicode="&#x2039;" horiz-adv-x="585" d="M25 809q0 -45 36 -82l297 -295q33 -33 78 -33q27 0 47.5 11.5t33.5 28t20.5 35t7.5 34.5q0 45 -33 78l-223 223l223 223q33 33 33 76q0 47 -33 78t-78 31t-76 -31l-297 -297q-37 -37 -36 -80z" />
<glyph unicode="&#x203a;" horiz-adv-x="585" d="M41 508q0 -27 11 -47.5t27.5 -33.5t35 -20.5t35.5 -7.5q45 0 77 33l297 295q37 37 37 82q0 43 -37 80l-297 297q-31 31 -75 31q-57 0 -84 -37t-27 -70q0 -45 33 -78l223 -223l-223 -223q-33 -33 -33 -78z" />
<glyph unicode="&#x205f;" horiz-adv-x="539" />
<glyph unicode="&#x2122;" horiz-adv-x="2351" d="M27 1518q0 -41 28.5 -70t69.5 -29h260v-874q0 -47 34 -81t81 -34t80.5 34t33.5 81v874h263q41 0 69.5 29t28.5 70t-28.5 69.5t-69.5 28.5h-752q-41 0 -69.5 -28.5t-28.5 -69.5zM1102 539q0 -45 31.5 -77t78.5 -32q45 0 77 32t32 77v780l217 -780q14 -49 51 -79t90 -30 t91 29.5t53 79.5l217 780v-780q0 -45 31.5 -77t76.5 -32t77 32t32 77v919q0 35 -15.5 64.5t-41 50t-59.5 32t-68 11.5q-66 0 -113 -36t-66 -99l-215 -758l-213 758q-16 63 -65 99t-115 36q-35 0 -68.5 -11.5t-59 -32t-41 -50t-15.5 -64.5v-919z" />
<glyph unicode="&#xe000;" horiz-adv-x="1187" d="M0 0v1188h1188v-1188h-1188z" />
</font>
</defs>
</svg>
